# MagicaVoxel @ Ephtracy

# group
o 

# material
mtllib Ilha Muuuito Grande-15.mtl
usemtl palette

# normals
vn -1 0 0
vn 1 0 0
vn 0 0 1
vn 0 0 -1
vn 0 -1 0
vn 0 1 0

# texcoords
vt 0.673828 0.5
vt 0.693359 0.5

# verts
v 4.3 10 3.2
v 4.3 10 -4.8
v 4.3 10 -4.9
v 4.3 10.1 -3.8
v 4.3 10.1 -4.8
v 4.3 10.2 3.2
v 4.3 10.2 -3.8
v 4.3 10.2 -4.9
v 4.9 10 3.2
v 4.9 10 2.9
v 4.9 10 -4.9
v 4.9 10.1 0.7
v 4.9 10.1 -1.2
v 4.9 10.1 -1.6
v 4.9 10.1 -4
v 4.9 10.1 -4.3
v 4.9 10.1 -4.9
v 4.9 10.2 3.2
v 4.9 10.2 2.9
v 4.9 10.2 0.7
v 4.9 10.2 -1.2
v 4.9 10.2 -1.6
v 4.9 10.2 -4
v 4.9 10.2 -4.3
v 4.9 10.2 -4.9
v 4.3 10 3.2
v 4.3 10.2 3.2
v 4.5 10 3.2
v 4.5 10.2 3.2
v 4.9 10 3.2
v 4.9 10.2 3.2
v 4.3 10 -4.9
v 4.3 10.2 -4.9
v 4.8 10 -4.9
v 4.8 10.1 -4.9
v 4.9 10 -4.9
v 4.9 10.1 -4.9
v 4.9 10.2 -4.9
v 4.3 10 3.2
v 4.5 10 3.2
v 4.9 10 3.2
v 4.5 10 3.1
v 4.8 10 3.1
v 4.8 10 2.9
v 4.9 10 2.9
v 4.3 10 -4.8
v 4.8 10 -4.8
v 4.3 10 -4.9
v 4.8 10 -4.9
v 4.9 10 -4.9
v 4.3 10.2 3.2
v 4.5 10.2 3.2
v 4.9 10.2 3.2
v 4.5 10.2 3.1
v 4.8 10.2 3.1
v 4.8 10.2 2.9
v 4.9 10.2 2.9
v 4.8 10.2 0.7
v 4.9 10.2 0.7
v 4.8 10.2 -1.2
v 4.9 10.2 -1.2
v 4.7 10.2 -1.6
v 4.9 10.2 -1.6
v 4.7 10.2 -2.9
v 4.8 10.2 -2.9
v 4.7 10.2 -3.2
v 4.8 10.2 -3.2
v 4.6 10.2 -3.4
v 4.7 10.2 -3.4
v 4.5 10.2 -3.6
v 4.6 10.2 -3.6
v 4.4 10.2 -3.7
v 4.5 10.2 -3.7
v 4.3 10.2 -3.8
v 4.4 10.2 -3.8
v 4.8 10.2 -4
v 4.9 10.2 -4
v 4.7 10.2 -4.1
v 4.8 10.2 -4.1
v 4.6 10.2 -4.2
v 4.7 10.2 -4.2
v 4.5 10.2 -4.3
v 4.6 10.2 -4.3
v 4.8 10.2 -4.3
v 4.9 10.2 -4.3
v 4.4 10.2 -4.4
v 4.5 10.2 -4.4
v 4.6 10.2 -4.4
v 4.8 10.2 -4.4
v 4.4 10.2 -4.5
v 4.6 10.2 -4.5
v 4.3 10.2 -4.9
v 4.9 10.2 -4.9

# faces
f 4/2/1 2/2/1 1/2/1
f 5/1/1 3/1/1 2/1/1
f 5/2/1 2/2/1 4/2/1
f 6/2/1 4/2/1 1/2/1
f 7/1/1 5/1/1 4/1/1
f 7/2/1 4/2/1 6/2/1
f 8/1/1 3/1/1 5/1/1
f 8/1/1 5/1/1 7/1/1
f 10/2/2 11/2/2 12/2/2
f 12/2/2 11/2/2 13/2/2
f 13/2/2 11/2/2 14/2/2
f 14/2/2 11/2/2 15/2/2
f 15/2/2 11/2/2 16/2/2
f 16/2/2 11/2/2 17/2/2
f 9/1/2 10/1/2 18/1/2
f 10/2/2 12/2/2 19/2/2
f 18/1/2 10/1/2 19/1/2
f 12/1/2 13/1/2 20/1/2
f 19/2/2 12/2/2 20/2/2
f 13/2/2 14/2/2 21/2/2
f 20/1/2 13/1/2 21/1/2
f 14/1/2 15/1/2 22/1/2
f 21/2/2 14/2/2 22/2/2
f 15/2/2 16/2/2 23/2/2
f 22/1/2 15/1/2 23/1/2
f 16/1/2 17/1/2 24/1/2
f 23/2/2 16/2/2 24/2/2
f 24/1/2 17/1/2 25/1/2
f 28/2/3 27/2/3 26/2/3
f 29/2/3 27/2/3 28/2/3
f 30/1/3 29/1/3 28/1/3
f 31/1/3 29/1/3 30/1/3
f 32/1/4 33/1/4 34/1/4
f 34/1/4 33/1/4 35/1/4
f 34/2/4 35/2/4 36/2/4
f 35/1/4 33/1/4 37/1/4
f 36/2/4 35/2/4 37/2/4
f 37/1/4 33/1/4 38/1/4
f 42/2/5 40/2/5 39/2/5
f 42/1/5 41/1/5 40/1/5
f 43/1/5 41/1/5 42/1/5
f 44/2/5 43/2/5 42/2/5
f 44/1/5 41/1/5 43/1/5
f 45/1/5 41/1/5 44/1/5
f 46/2/5 42/2/5 39/2/5
f 46/2/5 44/2/5 42/2/5
f 46/2/5 45/2/5 44/2/5
f 47/2/5 45/2/5 46/2/5
f 48/1/5 47/1/5 46/1/5
f 49/2/5 45/2/5 47/2/5
f 49/1/5 47/1/5 48/1/5
f 50/2/5 45/2/5 49/2/5
f 51/2/6 52/2/6 54/2/6
f 52/1/6 53/1/6 54/1/6
f 54/1/6 53/1/6 55/1/6
f 54/2/6 55/2/6 56/2/6
f 55/1/6 53/1/6 56/1/6
f 56/1/6 53/1/6 57/1/6
f 54/2/6 56/2/6 58/2/6
f 56/2/6 57/2/6 58/2/6
f 58/2/6 57/2/6 59/2/6
f 54/2/6 58/2/6 60/2/6
f 58/1/6 59/1/6 60/1/6
f 60/1/6 59/1/6 61/1/6
f 54/2/6 60/2/6 62/2/6
f 60/2/6 61/2/6 62/2/6
f 62/2/6 61/2/6 63/2/6
f 54/2/6 62/2/6 64/2/6
f 62/1/6 63/1/6 64/1/6
f 64/1/6 63/1/6 65/1/6
f 54/2/6 64/2/6 66/2/6
f 64/2/6 65/2/6 66/2/6
f 65/1/6 63/1/6 67/1/6
f 66/2/6 65/2/6 67/2/6
f 54/2/6 66/2/6 68/2/6
f 66/1/6 67/1/6 69/1/6
f 68/2/6 66/2/6 69/2/6
f 51/2/6 54/2/6 70/2/6
f 54/2/6 68/2/6 70/2/6
f 68/1/6 69/1/6 71/1/6
f 70/2/6 68/2/6 71/2/6
f 51/2/6 70/2/6 72/2/6
f 70/1/6 71/1/6 73/1/6
f 72/2/6 70/2/6 73/2/6
f 51/2/6 72/2/6 74/2/6
f 72/1/6 73/1/6 75/1/6
f 74/2/6 72/2/6 75/2/6
f 69/1/6 67/1/6 76/1/6
f 75/1/6 73/1/6 76/1/6
f 74/1/6 75/1/6 76/1/6
f 67/1/6 63/1/6 76/1/6
f 73/1/6 71/1/6 76/1/6
f 71/1/6 69/1/6 76/1/6
f 76/1/6 63/1/6 77/1/6
f 74/1/6 76/1/6 78/1/6
f 76/2/6 77/2/6 79/2/6
f 78/1/6 76/1/6 79/1/6
f 74/1/6 78/1/6 80/1/6
f 78/2/6 79/2/6 81/2/6
f 80/1/6 78/1/6 81/1/6
f 74/1/6 80/1/6 82/1/6
f 80/2/6 81/2/6 83/2/6
f 82/1/6 80/1/6 83/1/6
f 79/2/6 77/2/6 84/2/6
f 83/2/6 81/2/6 84/2/6
f 81/2/6 79/2/6 84/2/6
f 84/2/6 77/2/6 85/2/6
f 74/1/6 82/1/6 86/1/6
f 82/2/6 83/2/6 87/2/6
f 86/1/6 82/1/6 87/1/6
f 83/2/6 84/2/6 87/2/6
f 87/2/6 84/2/6 88/2/6
f 84/1/6 85/1/6 89/1/6
f 88/2/6 84/2/6 89/2/6
f 74/1/6 86/1/6 90/1/6
f 87/2/6 88/2/6 90/2/6
f 86/2/6 87/2/6 90/2/6
f 88/1/6 89/1/6 91/1/6
f 90/2/6 88/2/6 91/2/6
f 74/1/6 90/1/6 92/1/6
f 90/1/6 91/1/6 92/1/6
f 89/1/6 85/1/6 93/1/6
f 92/1/6 91/1/6 93/1/6
f 91/1/6 89/1/6 93/1/6
