# MagicaVoxel @ Ephtracy

# group
o 

# material
mtllib Ilha Muuuito Grande-44.mtl
usemtl palette

# normals
vn -1 0 0
vn 1 0 0
vn 0 0 1
vn 0 0 -1
vn 0 -1 0
vn 0 1 0

# texcoords
vt 0.673828 0.5
vt 0.693359 0.5

# verts
v -5.1 10 2.9
v -5.1 10 -1.8
v -5.1 10 -3.6
v -5.1 10 -4.3
v -5.1 10.1 2.9
v -5.1 10.1 -1.8
v -5.1 10.1 -3.6
v -5.1 10.1 -4.2
v -5.1 10.2 2.9
v -5.1 10.2 -4.2
v -5.1 10.2 -4.3
v 2.3 10 2.3
v 2.3 10 -2.3
v 2.3 10.2 2.3
v 2.3 10.2 -2.3
v -2.3 10 2.3
v -2.3 10 -2.3
v -2.3 10.2 2.3
v -2.3 10.2 -2.3
v 4.3 10 2.9
v 4.3 10 -4.3
v 4.3 10.1 -3.9
v 4.3 10.1 -4.3
v 4.3 10.2 2.9
v 4.3 10.2 -3.9
v 4.3 10.2 -4.3
v -5.1 10 2.9
v -5.1 10.1 2.9
v -5.1 10.2 2.9
v -4.8 10.1 2.9
v -4.8 10.2 2.9
v 4.3 10 2.9
v 4.3 10.2 2.9
v -2.3 10 -2.3
v -2.3 10.2 -2.3
v 2.3 10 -2.3
v 2.3 10.2 -2.3
v -2.3 10 2.3
v -2.3 10.2 2.3
v 2.3 10 2.3
v 2.3 10.2 2.3
v -5.1 10 -4.3
v -5.1 10.2 -4.3
v -5 10.1 -4.3
v -5 10.2 -4.3
v -4.6 10.1 -4.3
v -4.6 10.2 -4.3
v -3.4 10.1 -4.3
v -3.4 10.2 -4.3
v -2.7 10 -4.3
v -2.7 10.1 -4.3
v -2.6 10 -4.3
v -2.6 10.2 -4.3
v 4 10.1 -4.3
v 4 10.2 -4.3
v 4.3 10 -4.3
v 4.3 10.1 -4.3
v 4.3 10.2 -4.3
v -5.1 10 2.9
v 4.3 10 2.9
v -2.3 10 2.3
v 2.3 10 2.3
v -5.1 10 -1.8
v -5 10 -1.8
v -2.3 10 -2.3
v 2.3 10 -2.3
v -5.1 10 -3.6
v -5 10 -3.6
v -2.7 10 -4.1
v -2.6 10 -4.1
v -5.1 10 -4.3
v -2.7 10 -4.3
v -2.6 10 -4.3
v 4.3 10 -4.3
v -5.1 10.2 2.9
v -4.8 10.2 2.9
v 4.3 10.2 2.9
v -4.8 10.2 2.7
v -4.7 10.2 2.7
v -2.3 10.2 2.3
v 2.3 10.2 2.3
v -4.8 10.2 -0.0999999
v -4.7 10.2 -0.0999999
v -4.9 10.2 -2.1
v -4.8 10.2 -2.1
v -5 10.2 -2.2
v -4.9 10.2 -2.2
v -2.3 10.2 -2.3
v 2.3 10.2 -2.3
v -5 10.2 -3.2
v -4.9 10.2 -3.2
v -4.9 10.2 -3.4
v -4.8 10.2 -3.4
v -4.8 10.2 -3.7
v -4.7 10.2 -3.7
v -4.7 10.2 -3.9
v -4.6 10.2 -3.9
v 4.1 10.2 -3.9
v 4.3 10.2 -3.9
v -3.3 10.2 -4
v -2.8 10.2 -4
v -3.4 10.2 -4.1
v -3.3 10.2 -4.1
v -2.8 10.2 -4.1
v -2.6 10.2 -4.1
v 4 10.2 -4.1
v 4.1 10.2 -4.1
v -5.1 10.2 -4.2
v -5 10.2 -4.2
v -5.1 10.2 -4.3
v -5 10.2 -4.3
v -4.6 10.2 -4.3
v -3.4 10.2 -4.3
v -2.6 10.2 -4.3
v 4 10.2 -4.3
v 4.3 10.2 -4.3

# faces
f 5/2/1 2/2/1 1/2/1
f 6/1/1 3/1/1 2/1/1
f 6/2/1 2/2/1 5/2/1
f 7/2/1 4/2/1 3/2/1
f 7/1/1 3/1/1 6/1/1
f 8/2/1 4/2/1 7/2/1
f 9/1/1 6/1/1 5/1/1
f 9/1/1 7/1/1 6/1/1
f 9/1/1 8/1/1 7/1/1
f 10/2/1 4/2/1 8/2/1
f 10/1/1 8/1/1 9/1/1
f 11/2/1 4/2/1 10/2/1
f 14/2/1 13/2/1 12/2/1
f 15/2/1 13/2/1 14/2/1
f 16/2/2 17/2/2 18/2/2
f 18/2/2 17/2/2 19/2/2
f 20/2/2 21/2/2 22/2/2
f 22/2/2 21/2/2 23/2/2
f 20/2/2 22/2/2 24/2/2
f 22/1/2 23/1/2 25/1/2
f 24/2/2 22/2/2 25/2/2
f 25/1/2 23/1/2 26/1/2
f 30/2/3 28/2/3 27/2/3
f 30/1/3 29/1/3 28/1/3
f 31/1/3 29/1/3 30/1/3
f 32/2/3 30/2/3 27/2/3
f 32/2/3 31/2/3 30/2/3
f 33/2/3 31/2/3 32/2/3
f 36/2/3 35/2/3 34/2/3
f 37/2/3 35/2/3 36/2/3
f 38/2/4 39/2/4 40/2/4
f 40/2/4 39/2/4 41/2/4
f 42/2/4 43/2/4 44/2/4
f 44/2/4 43/2/4 45/2/4
f 42/2/4 44/2/4 46/2/4
f 44/1/4 45/1/4 46/1/4
f 46/1/4 45/1/4 47/1/4
f 42/2/4 46/2/4 48/2/4
f 46/2/4 47/2/4 48/2/4
f 48/2/4 47/2/4 49/2/4
f 42/2/4 48/2/4 50/2/4
f 48/1/4 49/1/4 51/1/4
f 50/2/4 48/2/4 51/2/4
f 50/1/4 51/1/4 52/1/4
f 51/1/4 49/1/4 53/1/4
f 52/1/4 51/1/4 53/1/4
f 52/2/4 53/2/4 54/2/4
f 54/2/4 53/2/4 55/2/4
f 52/2/4 54/2/4 56/2/4
f 54/1/4 55/1/4 57/1/4
f 56/2/4 54/2/4 57/2/4
f 57/1/4 55/1/4 58/1/4
f 61/2/5 60/2/5 59/2/5
f 62/2/5 60/2/5 61/2/5
f 63/2/5 61/2/5 59/2/5
f 64/2/5 61/2/5 63/2/5
f 65/2/5 61/2/5 64/2/5
f 66/2/5 60/2/5 62/2/5
f 67/1/5 64/1/5 63/1/5
f 68/2/5 65/2/5 64/2/5
f 68/1/5 64/1/5 67/1/5
f 68/2/5 66/2/5 65/2/5
f 69/2/5 68/2/5 67/2/5
f 69/2/5 66/2/5 68/2/5
f 70/2/5 66/2/5 69/2/5
f 71/2/5 69/2/5 67/2/5
f 72/1/5 70/1/5 69/1/5
f 72/2/5 69/2/5 71/2/5
f 73/2/5 66/2/5 70/2/5
f 73/1/5 70/1/5 72/1/5
f 74/2/5 60/2/5 66/2/5
f 74/2/5 66/2/5 73/2/5
f 75/1/6 76/1/6 78/1/6
f 76/2/6 77/2/6 78/2/6
f 78/2/6 77/2/6 79/2/6
f 79/2/6 77/2/6 80/2/6
f 80/2/6 77/2/6 81/2/6
f 75/1/6 78/1/6 82/1/6
f 78/1/6 79/1/6 82/1/6
f 79/2/6 80/2/6 83/2/6
f 82/1/6 79/1/6 83/1/6
f 75/1/6 82/1/6 84/1/6
f 82/2/6 83/2/6 85/2/6
f 84/1/6 82/1/6 85/1/6
f 75/1/6 84/1/6 86/1/6
f 84/2/6 85/2/6 87/2/6
f 86/1/6 84/1/6 87/1/6
f 83/2/6 80/2/6 88/2/6
f 87/2/6 85/2/6 88/2/6
f 86/2/6 87/2/6 88/2/6
f 85/2/6 83/2/6 88/2/6
f 81/2/6 77/2/6 89/2/6
f 86/2/6 88/2/6 90/2/6
f 88/2/6 89/2/6 90/2/6
f 75/1/6 86/1/6 90/1/6
f 90/2/6 89/2/6 91/2/6
f 90/1/6 91/1/6 92/1/6
f 91/2/6 89/2/6 92/2/6
f 92/2/6 89/2/6 93/2/6
f 92/1/6 93/1/6 94/1/6
f 93/2/6 89/2/6 94/2/6
f 94/2/6 89/2/6 95/2/6
f 94/1/6 95/1/6 96/1/6
f 95/2/6 89/2/6 96/2/6
f 96/2/6 89/2/6 97/2/6
f 89/2/6 77/2/6 98/2/6
f 97/2/6 89/2/6 98/2/6
f 98/2/6 77/2/6 99/2/6
f 97/2/6 98/2/6 100/2/6
f 100/2/6 98/2/6 101/2/6
f 97/2/6 100/2/6 102/2/6
f 100/1/6 101/1/6 103/1/6
f 102/2/6 100/2/6 103/2/6
f 101/2/6 98/2/6 104/2/6
f 103/1/6 101/1/6 104/1/6
f 104/2/6 98/2/6 105/2/6
f 105/2/6 98/2/6 106/2/6
f 98/1/6 99/1/6 107/1/6
f 106/2/6 98/2/6 107/2/6
f 96/1/6 97/1/6 108/1/6
f 75/1/6 90/1/6 108/1/6
f 90/1/6 92/1/6 108/1/6
f 92/1/6 94/1/6 108/1/6
f 94/1/6 96/1/6 108/1/6
f 108/1/6 97/1/6 109/1/6
f 108/2/6 109/2/6 110/2/6
f 109/1/6 97/1/6 111/1/6
f 110/2/6 109/2/6 111/2/6
f 97/2/6 102/2/6 112/2/6
f 111/1/6 97/1/6 112/1/6
f 104/1/6 105/1/6 113/1/6
f 112/2/6 102/2/6 113/2/6
f 103/1/6 104/1/6 113/1/6
f 102/1/6 103/1/6 113/1/6
f 105/2/6 106/2/6 114/2/6
f 113/1/6 105/1/6 114/1/6
f 106/1/6 107/1/6 115/1/6
f 114/2/6 106/2/6 115/2/6
f 107/1/6 99/1/6 116/1/6
f 115/1/6 107/1/6 116/1/6
