# MagicaVoxel @ Ephtracy

# group
o 

# material
mtllib Ilha Muuuito Grande-12.mtl
usemtl palette

# normals
vn -1 0 0
vn 1 0 0
vn 0 0 1
vn 0 0 -1
vn 0 -1 0
vn 0 1 0

# texcoords
vt 0.673828 0.5
vt 0.693359 0.5

# verts
v 5.5 9.8 3.9
v 5.5 9.8 1.8
v 5.5 9.8 1.7
v 5.5 9.9 3.9
v 5.5 9.9 1.8
v 5.5 10 3.9
v 5.5 10 1.7
v 5.9 9.8 3.9
v 5.9 9.8 3.2
v 5.9 9.8 1.7
v 5.9 9.9 3.3
v 5.9 9.9 3.2
v 5.9 10 3.9
v 5.9 10 3.3
v 5.9 10 1.7
v 5.5 9.8 3.9
v 5.5 9.9 3.9
v 5.5 10 3.9
v 5.6 9.9 3.9
v 5.6 10 3.9
v 5.9 9.8 3.9
v 5.9 10 3.9
v 5.5 9.8 1.7
v 5.5 10 1.7
v 5.9 9.8 1.7
v 5.9 10 1.7
v 5.5 9.8 3.9
v 5.9 9.8 3.9
v 5.8 9.8 3.2
v 5.9 9.8 3.2
v 5.5 9.8 1.8
v 5.8 9.8 1.8
v 5.5 9.8 1.7
v 5.9 9.8 1.7
v 5.5 10 3.9
v 5.6 10 3.9
v 5.9 10 3.9
v 5.6 10 3.8
v 5.7 10 3.8
v 5.7 10 3.5
v 5.8 10 3.5
v 5.8 10 3.3
v 5.9 10 3.3
v 5.5 10 1.7
v 5.9 10 1.7

# faces
f 4/2/1 2/2/1 1/2/1
f 5/1/1 3/1/1 2/1/1
f 5/2/1 2/2/1 4/2/1
f 6/1/1 5/1/1 4/1/1
f 7/1/1 3/1/1 5/1/1
f 7/1/1 5/1/1 6/1/1
f 8/2/2 9/2/2 11/2/2
f 9/1/2 10/1/2 12/1/2
f 11/2/2 9/2/2 12/2/2
f 8/2/2 11/2/2 13/2/2
f 11/1/2 12/1/2 14/1/2
f 13/2/2 11/2/2 14/2/2
f 12/1/2 10/1/2 15/1/2
f 14/1/2 12/1/2 15/1/2
f 19/2/3 17/2/3 16/2/3
f 19/1/3 18/1/3 17/1/3
f 20/1/3 18/1/3 19/1/3
f 21/2/3 19/2/3 16/2/3
f 21/2/3 20/2/3 19/2/3
f 22/2/3 20/2/3 21/2/3
f 23/1/4 24/1/4 25/1/4
f 25/1/4 24/1/4 26/1/4
f 29/2/5 28/2/5 27/2/5
f 30/2/5 28/2/5 29/2/5
f 31/2/5 29/2/5 27/2/5
f 32/1/5 30/1/5 29/1/5
f 32/2/5 29/2/5 31/2/5
f 33/1/5 32/1/5 31/1/5
f 34/1/5 30/1/5 32/1/5
f 34/1/5 32/1/5 33/1/5
f 35/1/6 36/1/6 38/1/6
f 36/2/6 37/2/6 38/2/6
f 38/2/6 37/2/6 39/2/6
f 38/1/6 39/1/6 40/1/6
f 39/2/6 37/2/6 40/2/6
f 40/2/6 37/2/6 41/2/6
f 40/1/6 41/1/6 42/1/6
f 41/2/6 37/2/6 42/2/6
f 42/2/6 37/2/6 43/2/6
f 35/1/6 38/1/6 44/1/6
f 38/1/6 40/1/6 44/1/6
f 42/1/6 43/1/6 44/1/6
f 40/1/6 42/1/6 44/1/6
f 44/1/6 43/1/6 45/1/6
