# MagicaVoxel @ Ephtracy

# group
o 

# material
mtllib Ilha Muuuito Grande-9.mtl
usemtl palette

# normals
vn -1 0 0
vn 1 0 0
vn 0 0 1
vn 0 0 -1
vn 0 -1 0
vn 0 1 0

# texcoords
vt 0.673828 0.5
vt 0.693359 0.5

# verts
v 5.3 9.8 -1.5
v 5.3 9.8 -4.8
v 5.3 9.8 -4.9
v 5.3 9.8 -5.2
v 5.3 9.8 -5.3
v 5.3 9.9 -3.2
v 5.3 9.9 -3.8
v 5.3 9.9 -4.4
v 5.3 9.9 -4.8
v 5.3 9.9 -4.9
v 5.3 9.9 -5.2
v 5.3 10 -1.5
v 5.3 10 -3.2
v 5.3 10 -3.8
v 5.3 10 -4.4
v 5.3 10 -5.3
v 5.5 9.8 -1.5
v 5.5 9.8 -2
v 5.5 9.8 -2.9
v 5.5 9.8 -5
v 5.5 9.8 -5.3
v 5.5 9.9 -2.2
v 5.5 9.9 -2.9
v 5.5 9.9 -5
v 5.5 9.9 -5.3
v 5.5 10 -1.5
v 5.5 10 -2
v 5.5 10 -2.2
v 5.5 10 -5.3
v 5.3 9.8 -1.5
v 5.3 10 -1.5
v 5.4 9.8 -1.5
v 5.4 10 -1.5
v 5.5 9.8 -1.5
v 5.5 10 -1.5
v 5.3 9.8 -5.3
v 5.3 10 -5.3
v 5.4 9.8 -5.3
v 5.4 9.9 -5.3
v 5.5 9.8 -5.3
v 5.5 9.9 -5.3
v 5.5 10 -5.3
v 5.3 9.8 -1.5
v 5.4 9.8 -1.5
v 5.5 9.8 -1.5
v 5.4 9.8 -2
v 5.5 9.8 -2
v 5.4 9.8 -2.9
v 5.5 9.8 -2.9
v 5.3 9.8 -4.8
v 5.4 9.8 -4.8
v 5.3 9.8 -4.9
v 5.4 9.8 -4.9
v 5.4 9.8 -5
v 5.5 9.8 -5
v 5.3 9.8 -5.2
v 5.4 9.8 -5.2
v 5.3 9.8 -5.3
v 5.4 9.8 -5.3
v 5.5 9.8 -5.3
v 5.3 10 -1.5
v 5.4 10 -1.5
v 5.5 10 -1.5
v 5.4 10 -2
v 5.5 10 -2
v 5.4 10 -2.2
v 5.5 10 -2.2
v 5.3 10 -3.2
v 5.4 10 -3.2
v 5.3 10 -3.8
v 5.4 10 -3.8
v 5.3 10 -4.4
v 5.4 10 -4.4
v 5.3 10 -5.3
v 5.5 10 -5.3

# faces
f 6/2/1 2/2/1 1/2/1
f 7/2/1 2/2/1 6/2/1
f 8/2/1 2/2/1 7/2/1
f 9/1/1 3/1/1 2/1/1
f 9/2/1 2/2/1 8/2/1
f 10/2/1 4/2/1 3/2/1
f 10/1/1 3/1/1 9/1/1
f 11/1/1 5/1/1 4/1/1
f 11/2/1 4/2/1 10/2/1
f 12/2/1 6/2/1 1/2/1
f 13/1/1 7/1/1 6/1/1
f 13/2/1 6/2/1 12/2/1
f 14/2/1 8/2/1 7/2/1
f 14/1/1 7/1/1 13/1/1
f 15/1/1 10/1/1 9/1/1
f 15/2/1 8/2/1 14/2/1
f 15/1/1 9/1/1 8/1/1
f 15/1/1 11/1/1 10/1/1
f 16/1/1 5/1/1 11/1/1
f 16/1/1 11/1/1 15/1/1
f 18/2/2 19/2/2 22/2/2
f 19/1/2 20/1/2 23/1/2
f 22/2/2 19/2/2 23/2/2
f 20/2/2 21/2/2 24/2/2
f 23/1/2 20/1/2 24/1/2
f 24/2/2 21/2/2 25/2/2
f 17/1/2 18/1/2 26/1/2
f 18/2/2 22/2/2 27/2/2
f 26/1/2 18/1/2 27/1/2
f 22/1/2 23/1/2 28/1/2
f 27/2/2 22/2/2 28/2/2
f 23/1/2 24/1/2 28/1/2
f 24/1/2 25/1/2 28/1/2
f 28/1/2 25/1/2 29/1/2
f 32/2/3 31/2/3 30/2/3
f 33/2/3 31/2/3 32/2/3
f 34/1/3 33/1/3 32/1/3
f 35/1/3 33/1/3 34/1/3
f 36/1/4 37/1/4 38/1/4
f 38/1/4 37/1/4 39/1/4
f 38/2/4 39/2/4 40/2/4
f 39/1/4 37/1/4 41/1/4
f 40/2/4 39/2/4 41/2/4
f 41/1/4 37/1/4 42/1/4
f 46/2/5 44/2/5 43/2/5
f 46/1/5 45/1/5 44/1/5
f 47/1/5 45/1/5 46/1/5
f 48/2/5 46/2/5 43/2/5
f 48/2/5 47/2/5 46/2/5
f 49/2/5 47/2/5 48/2/5
f 50/2/5 48/2/5 43/2/5
f 51/1/5 49/1/5 48/1/5
f 51/2/5 48/2/5 50/2/5
f 52/1/5 51/1/5 50/1/5
f 53/1/5 49/1/5 51/1/5
f 53/1/5 51/1/5 52/1/5
f 54/2/5 53/2/5 52/2/5
f 54/1/5 49/1/5 53/1/5
f 55/1/5 49/1/5 54/1/5
f 56/2/5 54/2/5 52/2/5
f 56/2/5 55/2/5 54/2/5
f 57/2/5 55/2/5 56/2/5
f 58/1/5 57/1/5 56/1/5
f 59/2/5 55/2/5 57/2/5
f 59/1/5 57/1/5 58/1/5
f 60/2/5 55/2/5 59/2/5
f 61/2/6 62/2/6 64/2/6
f 62/1/6 63/1/6 64/1/6
f 64/1/6 63/1/6 65/1/6
f 61/2/6 64/2/6 66/2/6
f 64/2/6 65/2/6 66/2/6
f 66/2/6 65/2/6 67/2/6
f 61/2/6 66/2/6 68/2/6
f 66/1/6 67/1/6 69/1/6
f 68/2/6 66/2/6 69/2/6
f 68/1/6 69/1/6 70/1/6
f 69/1/6 67/1/6 71/1/6
f 70/1/6 69/1/6 71/1/6
f 70/2/6 71/2/6 72/2/6
f 71/1/6 67/1/6 73/1/6
f 72/2/6 71/2/6 73/2/6
f 72/1/6 73/1/6 74/1/6
f 73/1/6 67/1/6 75/1/6
f 74/1/6 73/1/6 75/1/6
