# MagicaVoxel @ Ephtracy

# group
o 

# material
mtllib Ilha Muuuito Grande-8.mtl
usemtl palette

# normals
vn -1 0 0
vn 1 0 0
vn 0 0 1
vn 0 0 -1
vn 0 -1 0
vn 0 1 0

# texcoords
vt 0.673828 0.5
vt 0.693359 0.5

# verts
v -4.1 9.8 -5.3
v -4.1 9.8 -6.1
v -4.1 9.9 -5.3
v -4.1 9.9 -6
v -4.1 10 -5.3
v -4.1 10 -6
v -4.1 10 -6.1
v 1.3 9.8 -5.3
v 1.3 9.8 -5.5
v 1.3 9.8 -6.1
v 1.3 9.9 -5.5
v 1.3 9.9 -6
v 1.3 10 -5.3
v 1.3 10 -6
v 1.3 10 -6.1
v -4.1 9.8 -5.3
v -4.1 9.9 -5.3
v -4.1 10 -5.3
v -3.7 9.9 -5.3
v -3.7 10 -5.3
v -3.3 9.9 -5.3
v -3.3 10 -5.3
v -2.8 9.9 -5.3
v -2.8 10 -5.3
v -1.9 9.9 -5.3
v -1.9 10 -5.3
v -0.9 9.9 -5.3
v -0.9 10 -5.3
v -0.2 9.9 -5.3
v -0.2 10 -5.3
v 1.2 9.8 -5.3
v 1.2 9.9 -5.3
v 1.3 9.8 -5.3
v 1.3 10 -5.3
v -4.1 9.8 -6.1
v -4.1 10 -6.1
v -3.6 9.9 -6.1
v -3.6 10 -6.1
v -1.2 9.8 -6.1
v -1.2 9.9 -6.1
v -0.5 9.8 -6.1
v -0.5 9.9 -6.1
v -0.3 9.8 -6.1
v -0.3 9.9 -6.1
v 0.3 9.8 -6.1
v 0.3 10 -6.1
v 1.3 9.8 -6.1
v 1.3 10 -6.1
v -4.1 9.8 -5.3
v 1.2 9.8 -5.3
v 1.3 9.8 -5.3
v 1.2 9.8 -5.5
v 1.3 9.8 -5.5
v -1.2 9.8 -6
v -0.5 9.8 -6
v -0.3 9.8 -6
v 0.3 9.8 -6
v -4.1 9.8 -6.1
v -1.2 9.8 -6.1
v -0.5 9.8 -6.1
v -0.3 9.8 -6.1
v 0.3 9.8 -6.1
v 1.3 9.8 -6.1
v -4.1 10 -5.3
v -3.7 10 -5.3
v -3.3 10 -5.3
v -2.8 10 -5.3
v -1.9 10 -5.3
v -0.9 10 -5.3
v -0.2 10 -5.3
v 1.3 10 -5.3
v -0.9 10 -5.4
v -0.7 10 -5.4
v -0.5 10 -5.4
v -0.2 10 -5.4
v -3.7 10 -5.5
v -3.3 10 -5.5
v -2.8 10 -5.5
v -2.7 10 -5.5
v -0.7 10 -5.5
v -0.5 10 -5.5
v -2.7 10 -5.6
v -1.9 10 -5.6
v 0.3 10 -5.6
v 0.7 10 -5.6
v 0.1 10 -5.7
v 0.3 10 -5.7
v 0.7 10 -5.7
v 0.9 10 -5.7
v 0.9 10 -5.8
v 1 10 -5.8
v -4.1 10 -6
v -3.6 10 -6
v 0.1 10 -6
v 0.3 10 -6
v 1 10 -6
v 1.3 10 -6
v -4.1 10 -6.1
v -3.6 10 -6.1
v 0.3 10 -6.1
v 1.3 10 -6.1

# faces
f 3/2/1 2/2/1 1/2/1
f 4/2/1 2/2/1 3/2/1
f 5/1/1 4/1/1 3/1/1
f 6/2/1 2/2/1 4/2/1
f 6/1/1 4/1/1 5/1/1
f 7/2/1 2/2/1 6/2/1
f 8/1/2 9/1/2 11/1/2
f 9/2/2 10/2/2 11/2/2
f 11/2/2 10/2/2 12/2/2
f 8/1/2 11/1/2 13/1/2
f 11/1/2 12/1/2 13/1/2
f 12/2/2 10/2/2 14/2/2
f 13/1/2 12/1/2 14/1/2
f 14/2/2 10/2/2 15/2/2
f 19/2/3 17/2/3 16/2/3
f 19/1/3 18/1/3 17/1/3
f 20/1/3 18/1/3 19/1/3
f 21/2/3 19/2/3 16/2/3
f 21/2/3 20/2/3 19/2/3
f 22/2/3 20/2/3 21/2/3
f 23/2/3 21/2/3 16/2/3
f 23/1/3 22/1/3 21/1/3
f 24/1/3 22/1/3 23/1/3
f 25/2/3 23/2/3 16/2/3
f 25/2/3 24/2/3 23/2/3
f 26/2/3 24/2/3 25/2/3
f 27/2/3 25/2/3 16/2/3
f 27/1/3 26/1/3 25/1/3
f 28/1/3 26/1/3 27/1/3
f 29/2/3 27/2/3 16/2/3
f 29/2/3 28/2/3 27/2/3
f 30/2/3 28/2/3 29/2/3
f 31/2/3 29/2/3 16/2/3
f 32/1/3 30/1/3 29/1/3
f 32/2/3 29/2/3 31/2/3
f 33/1/3 32/1/3 31/1/3
f 34/1/3 30/1/3 32/1/3
f 34/1/3 32/1/3 33/1/3
f 35/2/4 36/2/4 37/2/4
f 37/2/4 36/2/4 38/2/4
f 35/2/4 37/2/4 39/2/4
f 37/1/4 38/1/4 40/1/4
f 39/2/4 37/2/4 40/2/4
f 39/1/4 40/1/4 41/1/4
f 40/1/4 38/1/4 42/1/4
f 41/1/4 40/1/4 42/1/4
f 41/2/4 42/2/4 43/2/4
f 42/1/4 38/1/4 44/1/4
f 43/2/4 42/2/4 44/2/4
f 43/1/4 44/1/4 45/1/4
f 44/1/4 38/1/4 46/1/4
f 45/1/4 44/1/4 46/1/4
f 45/2/4 46/2/4 47/2/4
f 47/2/4 46/2/4 48/2/4
f 52/2/5 50/2/5 49/2/5
f 52/1/5 51/1/5 50/1/5
f 53/1/5 51/1/5 52/1/5
f 54/2/5 52/2/5 49/2/5
f 54/2/5 53/2/5 52/2/5
f 55/2/5 53/2/5 54/2/5
f 56/2/5 53/2/5 55/2/5
f 57/2/5 53/2/5 56/2/5
f 58/2/5 54/2/5 49/2/5
f 59/1/5 55/1/5 54/1/5
f 59/2/5 54/2/5 58/2/5
f 60/2/5 56/2/5 55/2/5
f 60/1/5 55/1/5 59/1/5
f 61/1/5 57/1/5 56/1/5
f 61/2/5 56/2/5 60/2/5
f 62/2/5 53/2/5 57/2/5
f 62/1/5 57/1/5 61/1/5
f 63/2/5 53/2/5 62/2/5
f 68/1/6 69/1/6 72/1/6
f 69/2/6 70/2/6 72/2/6
f 72/2/6 70/2/6 73/2/6
f 73/2/6 70/2/6 74/2/6
f 70/1/6 71/1/6 75/1/6
f 74/2/6 70/2/6 75/2/6
f 64/1/6 65/1/6 76/1/6
f 65/2/6 66/2/6 76/2/6
f 66/1/6 67/1/6 77/1/6
f 76/2/6 66/2/6 77/2/6
f 67/2/6 68/2/6 78/2/6
f 77/1/6 67/1/6 78/1/6
f 78/2/6 68/2/6 79/2/6
f 73/2/6 74/2/6 80/2/6
f 72/1/6 73/1/6 80/1/6
f 74/1/6 75/1/6 81/1/6
f 80/2/6 74/2/6 81/2/6
f 76/1/6 77/1/6 82/1/6
f 79/2/6 68/2/6 82/2/6
f 78/1/6 79/1/6 82/1/6
f 77/1/6 78/1/6 82/1/6
f 72/1/6 80/1/6 83/1/6
f 82/2/6 68/2/6 83/2/6
f 80/1/6 81/1/6 83/1/6
f 68/1/6 72/1/6 83/1/6
f 75/1/6 71/1/6 84/1/6
f 83/1/6 81/1/6 84/1/6
f 81/1/6 75/1/6 84/1/6
f 84/1/6 71/1/6 85/1/6
f 82/1/6 83/1/6 86/1/6
f 83/1/6 84/1/6 86/1/6
f 84/2/6 85/2/6 87/2/6
f 86/1/6 84/1/6 87/1/6
f 85/1/6 71/1/6 88/1/6
f 87/2/6 85/2/6 88/2/6
f 88/1/6 71/1/6 89/1/6
f 86/2/6 87/2/6 90/2/6
f 89/1/6 71/1/6 90/1/6
f 88/2/6 89/2/6 90/2/6
f 87/2/6 88/2/6 90/2/6
f 90/1/6 71/1/6 91/1/6
f 82/1/6 86/1/6 92/1/6
f 76/1/6 82/1/6 92/1/6
f 64/1/6 76/1/6 92/1/6
f 92/1/6 86/1/6 93/1/6
f 90/2/6 91/2/6 94/2/6
f 93/1/6 86/1/6 94/1/6
f 86/2/6 90/2/6 94/2/6
f 94/2/6 91/2/6 95/2/6
f 91/1/6 71/1/6 96/1/6
f 95/2/6 91/2/6 96/2/6
f 96/1/6 71/1/6 97/1/6
f 92/2/6 93/2/6 98/2/6
f 94/1/6 95/1/6 99/1/6
f 98/2/6 93/2/6 99/2/6
f 93/1/6 94/1/6 99/1/6
f 96/2/6 97/2/6 100/2/6
f 99/1/6 95/1/6 100/1/6
f 95/2/6 96/2/6 100/2/6
f 100/2/6 97/2/6 101/2/6
