# MagicaVoxel @ Ephtracy

# group
o 

# material
mtllib Ilha Muuuito Grande-1.mtl
usemtl palette

# normals
vn -1 0 0
vn 1 0 0
vn 0 0 1
vn 0 0 -1
vn 0 -1 0
vn 0 1 0

# texcoords
vt 0.673828 0.5
vt 0.693359 0.5

# verts
v -5.1 9.8 5.1
v -5.1 9.8 -1.2
v -5.1 9.8 -1.6
v -5.1 9.8 -2
v -5.1 9.8 -3.2
v -5.1 9.8 -4.9
v -5.1 9.9 2.6
v -5.1 9.9 1.9
v -5.1 9.9 -1.6
v -5.1 9.9 -2
v -5.1 9.9 -3.2
v -5.1 9.9 -4
v -5.1 10 5.1
v -5.1 10 2.6
v -5.1 10 1.9
v -5.1 10 -1.2
v -5.1 10 -4
v -5.1 10 -4.9
v -4.1 9.8 5.1
v -4.1 9.8 -4.9
v -4.1 9.9 -4.4
v -4.1 9.9 -4.9
v -4.1 10 5.1
v -4.1 10 -4.4
v -4.1 10 -4.9
v -5.1 9.8 5.1
v -5.1 10 5.1
v -4.1 9.8 5.1
v -4.1 10 5.1
v -5.1 9.8 -4.9
v -5.1 10 -4.9
v -4.8 9.9 -4.9
v -4.8 10 -4.9
v -4.1 9.8 -4.9
v -4.1 9.9 -4.9
v -4.1 10 -4.9
v -5.1 9.8 5.1
v -4.1 9.8 5.1
v -5.1 9.8 -1.2
v -5 9.8 -1.2
v -5.1 9.8 -1.6
v -5 9.8 -1.6
v -5.1 9.8 -2
v -5 9.8 -2
v -5.1 9.8 -3.2
v -5 9.8 -3.2
v -5.1 9.8 -4.9
v -4.1 9.8 -4.9
v -5.1 10 5.1
v -4.1 10 5.1
v -5.1 10 2.6
v -5 10 2.6
v -5.1 10 1.9
v -5 10 1.9
v -5.1 10 -1.2
v -5 10 -1.2
v -5.1 10 -4
v -5 10 -4
v -4.8 10 -4.2
v -4.4 10 -4.2
v -4.2 10 -4.4
v -4.1 10 -4.4
v -4.4 10 -4.5
v -4.2 10 -4.5
v -5.1 10 -4.9
v -4.8 10 -4.9
v -4.1 10 -4.9

# faces
f 7/2/1 2/2/1 1/2/1
f 8/2/1 2/2/1 7/2/1
f 9/1/1 3/1/1 2/1/1
f 9/2/1 4/2/1 3/2/1
f 10/1/1 5/1/1 4/1/1
f 10/2/1 4/2/1 9/2/1
f 11/2/1 6/2/1 5/2/1
f 11/1/1 5/1/1 10/1/1
f 12/2/1 6/2/1 11/2/1
f 13/2/1 7/2/1 1/2/1
f 14/1/1 8/1/1 7/1/1
f 14/2/1 7/2/1 13/2/1
f 15/2/1 2/2/1 8/2/1
f 15/1/1 8/1/1 14/1/1
f 16/1/1 10/1/1 9/1/1
f 16/2/1 2/2/1 15/2/1
f 16/1/1 9/1/1 2/1/1
f 16/1/1 12/1/1 11/1/1
f 16/1/1 11/1/1 10/1/1
f 17/2/1 6/2/1 12/2/1
f 17/1/1 12/1/1 16/1/1
f 18/2/1 6/2/1 17/2/1
f 19/2/2 20/2/2 21/2/2
f 21/2/2 20/2/2 22/2/2
f 19/2/2 21/2/2 23/2/2
f 21/1/2 22/1/2 24/1/2
f 23/2/2 21/2/2 24/2/2
f 24/1/2 22/1/2 25/1/2
f 28/2/3 27/2/3 26/2/3
f 29/2/3 27/2/3 28/2/3
f 30/2/4 31/2/4 32/2/4
f 32/2/4 31/2/4 33/2/4
f 30/2/4 32/2/4 34/2/4
f 32/1/4 33/1/4 35/1/4
f 34/2/4 32/2/4 35/2/4
f 35/1/4 33/1/4 36/1/4
f 39/2/5 38/2/5 37/2/5
f 40/2/5 38/2/5 39/2/5
f 41/1/5 40/1/5 39/1/5
f 42/2/5 38/2/5 40/2/5
f 42/1/5 40/1/5 41/1/5
f 43/2/5 42/2/5 41/2/5
f 44/2/5 38/2/5 42/2/5
f 44/2/5 42/2/5 43/2/5
f 45/1/5 44/1/5 43/1/5
f 46/2/5 38/2/5 44/2/5
f 46/1/5 44/1/5 45/1/5
f 47/2/5 46/2/5 45/2/5
f 48/2/5 38/2/5 46/2/5
f 48/2/5 46/2/5 47/2/5
f 49/2/6 50/2/6 51/2/6
f 51/2/6 50/2/6 52/2/6
f 51/1/6 52/1/6 53/1/6
f 52/2/6 50/2/6 54/2/6
f 53/1/6 52/1/6 54/1/6
f 53/2/6 54/2/6 55/2/6
f 54/2/6 50/2/6 56/2/6
f 55/2/6 54/2/6 56/2/6
f 55/1/6 56/1/6 57/1/6
f 56/2/6 50/2/6 58/2/6
f 57/1/6 56/1/6 58/1/6
f 57/2/6 58/2/6 59/2/6
f 58/2/6 50/2/6 59/2/6
f 59/2/6 50/2/6 60/2/6
f 60/2/6 50/2/6 61/2/6
f 61/2/6 50/2/6 62/2/6
f 59/1/6 60/1/6 63/1/6
f 60/2/6 61/2/6 63/2/6
f 61/1/6 62/1/6 64/1/6
f 63/2/6 61/2/6 64/2/6
f 57/2/6 59/2/6 65/2/6
f 59/1/6 63/1/6 66/1/6
f 65/2/6 59/2/6 66/2/6
f 63/1/6 64/1/6 66/1/6
f 64/1/6 62/1/6 67/1/6
f 66/1/6 64/1/6 67/1/6
