# MagicaVoxel @ Ephtracy

# group
o 

# material
mtllib Ilha Muuuito Grande-18.mtl
usemtl palette

# normals
vn -1 0 0
vn 1 0 0
vn 0 0 1
vn 0 0 -1
vn 0 -1 0
vn 0 1 0

# texcoords
vt 0.673828 0.5
vt 0.693359 0.5

# verts
v -5.3 10 5.1
v -5.3 10 2.9
v -5.3 10.1 5
v -5.3 10.1 3.3
v -5.3 10.1 3
v -5.3 10.1 2.9
v -5.3 10.2 5.1
v -5.3 10.2 5
v -5.3 10.2 3.3
v -5.3 10.2 3
v -5.3 10.2 2.9
v 3.9 10 5.1
v 3.9 10 4.8
v 3.9 10 4.7
v 3.9 10 4.6
v 3.9 10 2.9
v 3.9 10.2 5.1
v 3.9 10.2 4.8
v 3.9 10.2 4.7
v 3.9 10.2 4.6
v 3.9 10.2 2.9
v -5.3 10 5.1
v -5.3 10.2 5.1
v -4.9 10.1 5.1
v -4.9 10.2 5.1
v -2.2 10.1 5.1
v -2.2 10.2 5.1
v -2.1 10.1 5.1
v -2.1 10.2 5.1
v -1.6 10 5.1
v -1.6 10.1 5.1
v -0.6 10 5.1
v -0.6 10.1 5.1
v -0.0999999 10 5.1
v -0.0999999 10.1 5.1
v 0.4 10 5.1
v 0.4 10.1 5.1
v 1.3 10 5.1
v 1.3 10.1 5.1
v 1.8 10 5.1
v 1.8 10.1 5.1
v 1.9 10 5.1
v 1.9 10.1 5.1
v 2.4 10 5.1
v 2.4 10.2 5.1
v 3.4 10 5.1
v 3.4 10.2 5.1
v 3.9 10 5.1
v 3.9 10.2 5.1
v -5.3 10 2.9
v -5.3 10.1 2.9
v -5.3 10.2 2.9
v -4.8 10.1 2.9
v -4.8 10.2 2.9
v 3.9 10 2.9
v 3.9 10.2 2.9
v -5.3 10 5.1
v -1.6 10 5.1
v -0.6 10 5.1
v -0.0999999 10 5.1
v 0.4 10 5.1
v 1.3 10 5.1
v 1.8 10 5.1
v 1.9 10 5.1
v 2.4 10 5.1
v 3.4 10 5.1
v 3.9 10 5.1
v -1.6 10 5
v -0.6 10 5
v -0.0999999 10 5
v 0.4 10 5
v 1.3 10 5
v 1.8 10 5
v 1.9 10 5
v 2.4 10 5
v 3.4 10 5
v 3.8 10 5
v 3.8 10 4.8
v 3.9 10 4.8
v 3.8 10 4.7
v 3.9 10 4.7
v 3.8 10 4.6
v 3.9 10 4.6
v -5.3 10 2.9
v 3.9 10 2.9
v -5.3 10.2 5.1
v -4.9 10.2 5.1
v -2.2 10.2 5.1
v -2.1 10.2 5.1
v 2.4 10.2 5.1
v 3.4 10.2 5.1
v 3.9 10.2 5.1
v -5.3 10.2 5
v -4.9 10.2 5
v -2.5 10.2 5
v -2.3 10.2 5
v -2.2 10.2 5
v -2.1 10.2 5
v -1.2 10.2 5
v -1.1 10.2 5
v 2.3 10.2 5
v 2.4 10.2 5
v 3.4 10.2 5
v 3.6 10.2 5
v -3 10.2 4.9
v -2.5 10.2 4.9
v -2.3 10.2 4.9
v -1.3 10.2 4.9
v -1.2 10.2 4.9
v -1.1 10.2 4.9
v -0.8 10.2 4.9
v 2.1 10.2 4.9
v 2.3 10.2 4.9
v 3.6 10.2 4.9
v 3.8 10.2 4.9
v -3 10.2 4.8
v -2.5 10.2 4.8
v -1.6 10.2 4.8
v -1.3 10.2 4.8
v -1.2 10.2 4.8
v -0.8 10.2 4.8
v 1.4 10.2 4.8
v 2.1 10.2 4.8
v 3.8 10.2 4.8
v 3.9 10.2 4.8
v -1.8 10.2 4.7
v -1.6 10.2 4.7
v -0.2 10.2 4.7
v 1.4 10.2 4.7
v 3.8 10.2 4.7
v 3.9 10.2 4.7
v -2 10.2 4.6
v -1.8 10.2 4.6
v -0.4 10.2 4.6
v -0.2 10.2 4.6
v 3.8 10.2 4.6
v 3.9 10.2 4.6
v -4.4 10.2 4.5
v -3.7 10.2 4.5
v -2.2 10.2 4.5
v -2 10.2 4.5
v -0.5 10.2 4.5
v -0.4 10.2 4.5
v -3.7 10.2 4.4
v -2.2 10.2 4.4
v -1.2 10.2 4.4
v -0.5 10.2 4.4
v -4.5 10.2 4.3
v -4.4 10.2 4.3
v -4.6 10.2 4.1
v -4.5 10.2 4.1
v -4.7 10.2 3.9
v -4.6 10.2 3.9
v -4.8 10.2 3.8
v -4.7 10.2 3.8
v -5.3 10.2 3.3
v -5.2 10.2 3.3
v -5.3 10.2 3
v -5.2 10.2 3
v -5.3 10.2 2.9
v -4.8 10.2 2.9
v 3.9 10.2 2.9

# faces
f 3/2/1 2/2/1 1/2/1
f 4/2/1 2/2/1 3/2/1
f 5/2/1 2/2/1 4/2/1
f 6/2/1 2/2/1 5/2/1
f 7/2/1 3/2/1 1/2/1
f 8/1/1 4/1/1 3/1/1
f 8/2/1 3/2/1 7/2/1
f 9/2/1 5/2/1 4/2/1
f 9/1/1 4/1/1 8/1/1
f 10/1/1 6/1/1 5/1/1
f 10/2/1 5/2/1 9/2/1
f 11/1/1 6/1/1 10/1/1
f 12/1/2 13/1/2 17/1/2
f 13/2/2 14/2/2 18/2/2
f 17/1/2 13/1/2 18/1/2
f 14/1/2 15/1/2 19/1/2
f 18/2/2 14/2/2 19/2/2
f 15/2/2 16/2/2 20/2/2
f 19/1/2 15/1/2 20/1/2
f 20/2/2 16/2/2 21/2/2
f 24/2/3 23/2/3 22/2/3
f 25/2/3 23/2/3 24/2/3
f 26/2/3 24/2/3 22/2/3
f 26/1/3 25/1/3 24/1/3
f 27/1/3 25/1/3 26/1/3
f 28/2/3 26/2/3 22/2/3
f 28/2/3 27/2/3 26/2/3
f 29/2/3 27/2/3 28/2/3
f 30/2/3 28/2/3 22/2/3
f 31/1/3 29/1/3 28/1/3
f 31/2/3 28/2/3 30/2/3
f 32/1/3 31/1/3 30/1/3
f 33/1/3 29/1/3 31/1/3
f 33/1/3 31/1/3 32/1/3
f 34/2/3 33/2/3 32/2/3
f 35/1/3 29/1/3 33/1/3
f 35/2/3 33/2/3 34/2/3
f 36/1/3 35/1/3 34/1/3
f 37/1/3 29/1/3 35/1/3
f 37/1/3 35/1/3 36/1/3
f 38/2/3 37/2/3 36/2/3
f 39/1/3 29/1/3 37/1/3
f 39/2/3 37/2/3 38/2/3
f 40/1/3 39/1/3 38/1/3
f 41/1/3 29/1/3 39/1/3
f 41/1/3 39/1/3 40/1/3
f 42/2/3 41/2/3 40/2/3
f 43/1/3 29/1/3 41/1/3
f 43/2/3 41/2/3 42/2/3
f 44/1/3 43/1/3 42/1/3
f 45/1/3 29/1/3 43/1/3
f 45/1/3 43/1/3 44/1/3
f 46/2/3 45/2/3 44/2/3
f 47/2/3 45/2/3 46/2/3
f 48/1/3 47/1/3 46/1/3
f 49/1/3 47/1/3 48/1/3
f 50/2/4 51/2/4 53/2/4
f 51/1/4 52/1/4 53/1/4
f 53/1/4 52/1/4 54/1/4
f 50/2/4 53/2/4 55/2/4
f 53/2/4 54/2/4 55/2/4
f 55/2/4 54/2/4 56/2/4
f 68/2/5 58/2/5 57/2/5
f 68/1/5 59/1/5 58/1/5
f 69/2/5 60/2/5 59/2/5
f 69/1/5 59/1/5 68/1/5
f 70/1/5 61/1/5 60/1/5
f 70/2/5 60/2/5 69/2/5
f 71/2/5 62/2/5 61/2/5
f 71/1/5 61/1/5 70/1/5
f 72/1/5 63/1/5 62/1/5
f 72/2/5 62/2/5 71/2/5
f 73/2/5 64/2/5 63/2/5
f 73/1/5 63/1/5 72/1/5
f 74/1/5 65/1/5 64/1/5
f 74/2/5 64/2/5 73/2/5
f 75/2/5 66/2/5 65/2/5
f 75/1/5 65/1/5 74/1/5
f 76/1/5 67/1/5 66/1/5
f 76/2/5 66/2/5 75/2/5
f 77/1/5 67/1/5 76/1/5
f 78/2/5 75/2/5 74/2/5
f 78/1/5 67/1/5 77/1/5
f 78/2/5 77/2/5 76/2/5
f 78/2/5 76/2/5 75/2/5
f 78/2/5 73/2/5 72/2/5
f 78/2/5 72/2/5 71/2/5
f 78/2/5 71/2/5 70/2/5
f 78/2/5 70/2/5 69/2/5
f 78/2/5 69/2/5 68/2/5
f 78/2/5 74/2/5 73/2/5
f 79/1/5 67/1/5 78/1/5
f 80/2/5 78/2/5 68/2/5
f 80/2/5 79/2/5 78/2/5
f 81/2/5 79/2/5 80/2/5
f 82/2/5 80/2/5 68/2/5
f 82/1/5 81/1/5 80/1/5
f 83/1/5 81/1/5 82/1/5
f 84/2/5 68/2/5 57/2/5
f 84/2/5 82/2/5 68/2/5
f 84/2/5 83/2/5 82/2/5
f 85/2/5 83/2/5 84/2/5
f 86/2/6 87/2/6 93/2/6
f 87/1/6 88/1/6 94/1/6
f 93/2/6 87/2/6 94/2/6
f 94/1/6 88/1/6 95/1/6
f 95/1/6 88/1/6 96/1/6
f 88/2/6 89/2/6 97/2/6
f 96/1/6 88/1/6 97/1/6
f 89/1/6 90/1/6 98/1/6
f 97/2/6 89/2/6 98/2/6
f 98/1/6 90/1/6 99/1/6
f 99/1/6 90/1/6 100/1/6
f 100/1/6 90/1/6 101/1/6
f 90/2/6 91/2/6 102/2/6
f 101/1/6 90/1/6 102/1/6
f 91/1/6 92/1/6 103/1/6
f 102/2/6 91/2/6 103/2/6
f 103/1/6 92/1/6 104/1/6
f 93/1/6 94/1/6 105/1/6
f 94/1/6 95/1/6 105/1/6
f 95/2/6 96/2/6 106/2/6
f 105/1/6 95/1/6 106/1/6
f 96/1/6 97/1/6 107/1/6
f 106/2/6 96/2/6 107/2/6
f 97/1/6 98/1/6 107/1/6
f 98/1/6 99/1/6 107/1/6
f 107/1/6 99/1/6 108/1/6
f 99/2/6 100/2/6 109/2/6
f 108/1/6 99/1/6 109/1/6
f 100/1/6 101/1/6 110/1/6
f 109/2/6 100/2/6 110/2/6
f 110/1/6 101/1/6 111/1/6
f 111/1/6 101/1/6 112/1/6
f 101/2/6 102/2/6 113/2/6
f 112/1/6 101/1/6 113/1/6
f 103/2/6 104/2/6 113/2/6
f 102/2/6 103/2/6 113/2/6
f 104/1/6 92/1/6 114/1/6
f 113/2/6 104/2/6 114/2/6
f 114/1/6 92/1/6 115/1/6
f 93/1/6 105/1/6 116/1/6
f 105/2/6 106/2/6 116/2/6
f 107/1/6 108/1/6 117/1/6
f 116/2/6 106/2/6 117/2/6
f 106/1/6 107/1/6 117/1/6
f 117/1/6 108/1/6 118/1/6
f 108/2/6 109/2/6 119/2/6
f 118/1/6 108/1/6 119/1/6
f 110/2/6 111/2/6 119/2/6
f 109/2/6 110/2/6 119/2/6
f 119/2/6 111/2/6 120/2/6
f 111/1/6 112/1/6 121/1/6
f 120/2/6 111/2/6 121/2/6
f 121/1/6 112/1/6 122/1/6
f 114/2/6 115/2/6 123/2/6
f 122/1/6 112/1/6 123/1/6
f 112/2/6 113/2/6 123/2/6
f 113/2/6 114/2/6 123/2/6
f 115/1/6 92/1/6 124/1/6
f 123/2/6 115/2/6 124/2/6
f 124/1/6 92/1/6 125/1/6
f 117/1/6 118/1/6 126/1/6
f 116/1/6 117/1/6 126/1/6
f 119/2/6 120/2/6 127/2/6
f 126/1/6 118/1/6 127/1/6
f 118/2/6 119/2/6 127/2/6
f 121/1/6 122/1/6 128/1/6
f 120/1/6 121/1/6 128/1/6
f 122/2/6 123/2/6 129/2/6
f 128/1/6 122/1/6 129/1/6
f 124/2/6 125/2/6 129/2/6
f 123/2/6 124/2/6 129/2/6
f 129/2/6 125/2/6 130/2/6
f 130/2/6 125/2/6 131/2/6
f 116/1/6 126/1/6 132/1/6
f 126/2/6 127/2/6 133/2/6
f 132/1/6 126/1/6 133/1/6
f 120/1/6 128/1/6 134/1/6
f 128/2/6 129/2/6 135/2/6
f 134/1/6 128/1/6 135/1/6
f 129/2/6 130/2/6 135/2/6
f 130/1/6 131/1/6 136/1/6
f 135/2/6 130/2/6 136/2/6
f 136/1/6 131/1/6 137/1/6
f 116/1/6 132/1/6 138/1/6
f 93/1/6 116/1/6 138/1/6
f 138/1/6 132/1/6 139/1/6
f 139/1/6 132/1/6 140/1/6
f 132/2/6 133/2/6 141/2/6
f 140/1/6 132/1/6 141/1/6
f 120/1/6 134/1/6 142/1/6
f 136/2/6 137/2/6 143/2/6
f 142/1/6 134/1/6 143/1/6
f 134/2/6 135/2/6 143/2/6
f 135/2/6 136/2/6 143/2/6
f 139/1/6 140/1/6 144/1/6
f 138/2/6 139/2/6 144/2/6
f 140/2/6 141/2/6 145/2/6
f 144/1/6 140/1/6 145/1/6
f 133/2/6 127/2/6 146/2/6
f 145/2/6 141/2/6 146/2/6
f 127/2/6 120/2/6 146/2/6
f 120/1/6 142/1/6 146/1/6
f 141/2/6 133/2/6 146/2/6
f 142/2/6 143/2/6 147/2/6
f 146/1/6 142/1/6 147/1/6
f 93/1/6 138/1/6 148/1/6
f 144/2/6 145/2/6 149/2/6
f 148/1/6 138/1/6 149/1/6
f 145/2/6 146/2/6 149/2/6
f 146/2/6 147/2/6 149/2/6
f 138/2/6 144/2/6 149/2/6
f 93/1/6 148/1/6 150/1/6
f 148/2/6 149/2/6 151/2/6
f 150/1/6 148/1/6 151/1/6
f 93/1/6 150/1/6 152/1/6
f 150/2/6 151/2/6 153/2/6
f 152/1/6 150/1/6 153/1/6
f 93/1/6 152/1/6 154/1/6
f 152/2/6 153/2/6 155/2/6
f 154/1/6 152/1/6 155/1/6
f 93/1/6 154/1/6 156/1/6
f 156/1/6 154/1/6 157/1/6
f 156/2/6 157/2/6 158/2/6
f 157/1/6 154/1/6 159/1/6
f 158/2/6 157/2/6 159/2/6
f 158/1/6 159/1/6 160/1/6
f 154/2/6 155/2/6 161/2/6
f 160/1/6 159/1/6 161/1/6
f 159/1/6 154/1/6 161/1/6
f 149/2/6 147/2/6 162/2/6
f 161/2/6 155/2/6 162/2/6
f 147/2/6 143/2/6 162/2/6
f 143/2/6 137/2/6 162/2/6
f 151/2/6 149/2/6 162/2/6
f 153/2/6 151/2/6 162/2/6
f 155/2/6 153/2/6 162/2/6
