# MagicaVoxel @ Ephtracy

# group
o 

# material
mtllib Ilha Muuuito Grande-2.mtl
usemtl palette

# normals
vn -1 0 0
vn 1 0 0
vn 0 0 1
vn 0 0 -1
vn 0 -1 0
vn 0 1 0

# texcoords
vt 0.673828 0.5
vt 0.693359 0.5

# verts
v 4.9 9.8 3.9
v 4.9 9.8 3.8
v 4.9 9.8 -5.2
v 4.9 9.8 -5.3
v 4.9 9.9 3.8
v 4.9 9.9 2.5
v 4.9 9.9 -4.9
v 4.9 9.9 -5.2
v 4.9 10 3.9
v 4.9 10 2.5
v 4.9 10 -4.9
v 4.9 10 -5.3
v 5.3 9.8 3.9
v 5.3 9.8 0
v 5.3 9.8 -1.1
v 5.3 9.8 -4.8
v 5.3 9.8 -4.9
v 5.3 9.8 -5.2
v 5.3 9.8 -5.3
v 5.3 9.9 3.9
v 5.3 9.9 3.5
v 5.3 9.9 3.4
v 5.3 9.9 2.3
v 5.3 9.9 2.2
v 5.3 9.9 1.7
v 5.3 9.9 -1.1
v 5.3 9.9 -1.5
v 5.3 9.9 -4.7
v 5.3 9.9 -4.8
v 5.3 9.9 -4.9
v 5.3 9.9 -5.2
v 5.3 10 3.9
v 5.3 10 3.5
v 5.3 10 3.4
v 5.3 10 2.3
v 5.3 10 2.2
v 5.3 10 1.7
v 5.3 10 0
v 5.3 10 -1.5
v 5.3 10 -4.7
v 5.3 10 -5.3
v 4.9 9.8 3.9
v 4.9 10 3.9
v 5.1 9.8 3.9
v 5.1 9.9 3.9
v 5.3 9.8 3.9
v 5.3 9.9 3.9
v 5.3 10 3.9
v 4.9 9.8 -5.3
v 4.9 10 -5.3
v 5.3 9.8 -5.3
v 5.3 10 -5.3
v 4.9 9.8 3.9
v 5.1 9.8 3.9
v 5.3 9.8 3.9
v 4.9 9.8 3.8
v 5.1 9.8 3.8
v 5.1 9.8 0
v 5.3 9.8 0
v 5.1 9.8 -0.0999999
v 5.2 9.8 -0.0999999
v 5.2 9.8 -1.1
v 5.3 9.8 -1.1
v 5.1 9.8 -4.8
v 5.3 9.8 -4.8
v 5.1 9.8 -4.9
v 5.3 9.8 -4.9
v 4.9 9.8 -5.2
v 5.3 9.8 -5.2
v 4.9 9.8 -5.3
v 5.3 9.8 -5.3
v 4.9 10 3.9
v 5.3 10 3.9
v 5.2 10 3.5
v 5.3 10 3.5
v 5.2 10 3.4
v 5.3 10 3.4
v 4.9 10 2.5
v 5 10 2.5
v 5 10 2.4
v 5.1 10 2.4
v 5.1 10 2.3
v 5.3 10 2.3
v 5.2 10 2.2
v 5.3 10 2.2
v 5.1 10 2.1
v 5.2 10 2.1
v 5.1 10 1.7
v 5.3 10 1.7
v 5.1 10 0
v 5.3 10 0
v 5.1 10 -0.0999999
v 5.2 10 -0.0999999
v 5.2 10 -1.5
v 5.3 10 -1.5
v 5.1 10 -4.7
v 5.3 10 -4.7
v 5 10 -4.8
v 5.1 10 -4.8
v 4.9 10 -4.9
v 5 10 -4.9
v 4.9 10 -5.3
v 5.3 10 -5.3

# faces
f 5/1/1 2/1/1 1/1/1
f 5/2/1 3/2/1 2/2/1
f 6/2/1 3/2/1 5/2/1
f 7/2/1 3/2/1 6/2/1
f 8/1/1 4/1/1 3/1/1
f 8/2/1 3/2/1 7/2/1
f 9/1/1 5/1/1 1/1/1
f 9/1/1 6/1/1 5/1/1
f 10/2/1 7/2/1 6/2/1
f 10/1/1 6/1/1 9/1/1
f 11/1/1 8/1/1 7/1/1
f 11/2/1 7/2/1 10/2/1
f 12/1/1 4/1/1 8/1/1
f 12/1/1 8/1/1 11/1/1
f 13/2/2 14/2/2 20/2/2
f 20/2/2 14/2/2 21/2/2
f 21/2/2 14/2/2 22/2/2
f 22/2/2 14/2/2 23/2/2
f 23/2/2 14/2/2 24/2/2
f 24/2/2 14/2/2 25/2/2
f 14/1/2 15/1/2 26/1/2
f 15/2/2 16/2/2 26/2/2
f 26/2/2 16/2/2 27/2/2
f 27/2/2 16/2/2 28/2/2
f 16/1/2 17/1/2 29/1/2
f 28/2/2 16/2/2 29/2/2
f 17/2/2 18/2/2 30/2/2
f 29/1/2 17/1/2 30/1/2
f 18/1/2 19/1/2 31/1/2
f 30/2/2 18/2/2 31/2/2
f 20/1/2 21/1/2 32/1/2
f 21/2/2 22/2/2 33/2/2
f 32/1/2 21/1/2 33/1/2
f 22/1/2 23/1/2 34/1/2
f 33/2/2 22/2/2 34/2/2
f 23/2/2 24/2/2 35/2/2
f 34/1/2 23/1/2 35/1/2
f 24/1/2 25/1/2 36/1/2
f 35/2/2 24/2/2 36/2/2
f 25/2/2 14/2/2 37/2/2
f 36/1/2 25/1/2 37/1/2
f 14/1/2 26/1/2 38/1/2
f 37/2/2 14/2/2 38/2/2
f 26/1/2 27/1/2 38/1/2
f 27/2/2 28/2/2 39/2/2
f 38/1/2 27/1/2 39/1/2
f 29/1/2 30/1/2 40/1/2
f 39/2/2 28/2/2 40/2/2
f 28/1/2 29/1/2 40/1/2
f 30/1/2 31/1/2 40/1/2
f 31/1/2 19/1/2 41/1/2
f 40/1/2 31/1/2 41/1/2
f 44/1/3 43/1/3 42/1/3
f 45/1/3 43/1/3 44/1/3
f 46/2/3 45/2/3 44/2/3
f 47/1/3 43/1/3 45/1/3
f 47/2/3 45/2/3 46/2/3
f 48/1/3 43/1/3 47/1/3
f 49/1/4 50/1/4 51/1/4
f 51/1/4 50/1/4 52/1/4
f 56/1/5 54/1/5 53/1/5
f 57/2/5 55/2/5 54/2/5
f 57/1/5 54/1/5 56/1/5
f 58/2/5 57/2/5 56/2/5
f 58/2/5 55/2/5 57/2/5
f 59/2/5 55/2/5 58/2/5
f 60/2/5 58/2/5 56/2/5
f 60/1/5 59/1/5 58/1/5
f 61/1/5 59/1/5 60/1/5
f 62/2/5 61/2/5 60/2/5
f 62/1/5 59/1/5 61/1/5
f 63/1/5 59/1/5 62/1/5
f 64/2/5 60/2/5 56/2/5
f 64/2/5 62/2/5 60/2/5
f 64/2/5 63/2/5 62/2/5
f 65/2/5 63/2/5 64/2/5
f 66/2/5 64/2/5 56/2/5
f 66/1/5 65/1/5 64/1/5
f 67/1/5 65/1/5 66/1/5
f 68/2/5 66/2/5 56/2/5
f 68/2/5 67/2/5 66/2/5
f 69/2/5 67/2/5 68/2/5
f 70/1/5 69/1/5 68/1/5
f 71/1/5 69/1/5 70/1/5
f 72/1/6 73/1/6 74/1/6
f 74/1/6 73/1/6 75/1/6
f 72/1/6 74/1/6 76/1/6
f 74/2/6 75/2/6 76/2/6
f 76/2/6 75/2/6 77/2/6
f 72/1/6 76/1/6 78/1/6
f 76/1/6 77/1/6 78/1/6
f 78/1/6 77/1/6 79/1/6
f 78/2/6 79/2/6 80/2/6
f 79/1/6 77/1/6 80/1/6
f 80/1/6 77/1/6 81/1/6
f 80/2/6 81/2/6 82/2/6
f 81/1/6 77/1/6 82/1/6
f 82/1/6 77/1/6 83/1/6
f 82/2/6 83/2/6 84/2/6
f 84/2/6 83/2/6 85/2/6
f 80/2/6 82/2/6 86/2/6
f 82/2/6 84/2/6 86/2/6
f 84/1/6 85/1/6 87/1/6
f 86/2/6 84/2/6 87/2/6
f 80/2/6 86/2/6 88/2/6
f 86/1/6 87/1/6 88/1/6
f 87/1/6 85/1/6 89/1/6
f 88/1/6 87/1/6 89/1/6
f 80/2/6 88/2/6 90/2/6
f 88/2/6 89/2/6 90/2/6
f 90/2/6 89/2/6 91/2/6
f 80/2/6 90/2/6 92/2/6
f 90/1/6 91/1/6 92/1/6
f 92/1/6 91/1/6 93/1/6
f 92/2/6 93/2/6 94/2/6
f 93/1/6 91/1/6 94/1/6
f 94/1/6 91/1/6 95/1/6
f 80/2/6 92/2/6 96/2/6
f 92/2/6 94/2/6 96/2/6
f 94/2/6 95/2/6 96/2/6
f 96/2/6 95/2/6 97/2/6
f 78/2/6 80/2/6 98/2/6
f 80/2/6 96/2/6 98/2/6
f 96/1/6 97/1/6 99/1/6
f 98/2/6 96/2/6 99/2/6
f 78/2/6 98/2/6 100/2/6
f 98/1/6 99/1/6 101/1/6
f 100/2/6 98/2/6 101/2/6
f 100/1/6 101/1/6 102/1/6
f 99/1/6 97/1/6 103/1/6
f 102/1/6 101/1/6 103/1/6
f 101/1/6 99/1/6 103/1/6
