# MagicaVoxel @ Ephtracy

# group
o 

# material
mtllib Ilha Muuuito Grande-20.mtl
usemtl palette

# normals
vn -1 0 0
vn 1 0 0
vn 0 0 1
vn 0 0 -1
vn 0 -1 0
vn 0 1 0

# texcoords
vt 0.673828 0.5
vt 0.693359 0.5

# verts
v 5.3 10 -1.5
v 5.3 10 -4.8
v 5.3 10 -4.9
v 5.3 10.1 -1.5
v 5.3 10.1 -2.6
v 5.3 10.1 -2.9
v 5.3 10.1 -3.6
v 5.3 10.1 -3.8
v 5.3 10.1 -4.8
v 5.3 10.2 -1.5
v 5.3 10.2 -2.6
v 5.3 10.2 -2.9
v 5.3 10.2 -3.6
v 5.3 10.2 -3.8
v 5.3 10.2 -4.9
v 5.5 10 -1.5
v 5.5 10 -2
v 5.5 10 -2.2
v 5.5 10 -4.9
v 5.5 10.1 -2
v 5.5 10.1 -2.2
v 5.5 10.2 -1.5
v 5.5 10.2 -4.9
v 5.3 10 -1.5
v 5.3 10.1 -1.5
v 5.3 10.2 -1.5
v 5.4 10 -1.5
v 5.4 10.1 -1.5
v 5.5 10 -1.5
v 5.5 10.2 -1.5
v 5.3 10 -4.9
v 5.3 10.2 -4.9
v 5.5 10 -4.9
v 5.5 10.2 -4.9
v 5.3 10 -1.5
v 5.4 10 -1.5
v 5.5 10 -1.5
v 5.4 10 -2
v 5.5 10 -2
v 5.4 10 -2.2
v 5.5 10 -2.2
v 5.3 10 -4.8
v 5.4 10 -4.8
v 5.3 10 -4.9
v 5.5 10 -4.9
v 5.3 10.2 -1.5
v 5.5 10.2 -1.5
v 5.3 10.2 -2.6
v 5.4 10.2 -2.6
v 5.3 10.2 -2.9
v 5.4 10.2 -2.9
v 5.3 10.2 -3.6
v 5.4 10.2 -3.6
v 5.3 10.2 -3.8
v 5.4 10.2 -3.8
v 5.3 10.2 -4.9
v 5.5 10.2 -4.9

# faces
f 4/2/1 2/2/1 1/2/1
f 5/2/1 2/2/1 4/2/1
f 6/2/1 2/2/1 5/2/1
f 7/2/1 2/2/1 6/2/1
f 8/2/1 2/2/1 7/2/1
f 9/1/1 3/1/1 2/1/1
f 9/2/1 2/2/1 8/2/1
f 10/1/1 5/1/1 4/1/1
f 11/2/1 6/2/1 5/2/1
f 11/1/1 5/1/1 10/1/1
f 12/1/1 7/1/1 6/1/1
f 12/2/1 6/2/1 11/2/1
f 13/2/1 8/2/1 7/2/1
f 13/1/1 7/1/1 12/1/1
f 14/1/1 9/1/1 8/1/1
f 14/2/1 8/2/1 13/2/1
f 15/1/1 3/1/1 9/1/1
f 15/1/1 9/1/1 14/1/1
f 16/1/2 17/1/2 20/1/2
f 17/2/2 18/2/2 20/2/2
f 18/1/2 19/1/2 21/1/2
f 20/2/2 18/2/2 21/2/2
f 16/1/2 20/1/2 22/1/2
f 20/1/2 21/1/2 22/1/2
f 21/1/2 19/1/2 23/1/2
f 22/1/2 21/1/2 23/1/2
f 27/2/3 25/2/3 24/2/3
f 28/1/3 26/1/3 25/1/3
f 28/2/3 25/2/3 27/2/3
f 29/1/3 28/1/3 27/1/3
f 30/1/3 26/1/3 28/1/3
f 30/1/3 28/1/3 29/1/3
f 31/1/4 32/1/4 33/1/4
f 33/1/4 32/1/4 34/1/4
f 38/2/5 36/2/5 35/2/5
f 38/1/5 37/1/5 36/1/5
f 39/1/5 37/1/5 38/1/5
f 40/2/5 38/2/5 35/2/5
f 40/2/5 39/2/5 38/2/5
f 41/2/5 39/2/5 40/2/5
f 42/2/5 40/2/5 35/2/5
f 43/1/5 41/1/5 40/1/5
f 43/2/5 40/2/5 42/2/5
f 44/1/5 43/1/5 42/1/5
f 45/1/5 41/1/5 43/1/5
f 45/1/5 43/1/5 44/1/5
f 46/1/6 47/1/6 48/1/6
f 48/1/6 47/1/6 49/1/6
f 48/2/6 49/2/6 50/2/6
f 49/1/6 47/1/6 51/1/6
f 50/2/6 49/2/6 51/2/6
f 50/1/6 51/1/6 52/1/6
f 51/1/6 47/1/6 53/1/6
f 52/1/6 51/1/6 53/1/6
f 52/2/6 53/2/6 54/2/6
f 53/1/6 47/1/6 55/1/6
f 54/2/6 53/2/6 55/2/6
f 54/1/6 55/1/6 56/1/6
f 55/1/6 47/1/6 57/1/6
f 56/1/6 55/1/6 57/1/6
