# MagicaVoxel @ Ephtracy

# group
o 

# material
mtllib Casa Feiticeiro-12.mtl
usemtl palette

# normals
vn -1 0 0
vn 1 0 0
vn 0 0 1
vn 0 0 -1
vn 0 -1 0
vn 0 1 0

# texcoords
vt 0.650391 0.5
vt 0.912109 0.5

# verts
v -2.5 1 0.9
v -2.5 1 0.7
v -2.5 1 0.2
v -2.5 1 -0.9
v -2.5 1.1 0.1
v -2.5 1.1 -0.3
v -2.5 1.2 0.9
v -2.5 1.2 0.7
v -2.5 1.2 0.2
v -2.5 1.2 0.1
v -2.5 1.2 -0.3
v -2.5 1.2 -0.9
v -2.4 1 1.1
v -2.4 1 0.9
v -2.4 1 -0.9
v -2.4 1 -1.1
v -2.4 1.2 0.9
v -2.4 1.2 0.8
v -2.4 1.2 -0.8
v -2.4 1.2 -0.9
v -2.4 1.2 -1.1
v -2.4 1.3 1.1
v -2.4 1.3 0.8
v -2.4 1.3 -0.8
v -2.4 1.3 -1.1
v -2.3 1 2.1
v -2.3 1 1.6
v -2.3 1 1.3
v -2.3 1 1.1
v -2.3 1 -1.1
v -2.3 1 -1.2
v -2.3 1.1 1.7
v -2.3 1.1 1.6
v -2.3 1.1 1.3
v -2.3 1.1 1.2
v -2.3 1.2 2.1
v -2.3 1.2 1.8
v -2.3 1.2 1.7
v -2.3 1.2 1.6
v -2.3 1.2 -1.1
v -2.3 1.3 2.1
v -2.3 1.3 1.8
v -2.3 1.3 1.6
v -2.3 1.3 1.4
v -2.3 1.3 1.1
v -2.3 1.3 0.9
v -2.3 1.3 -0.9
v -2.3 1.3 -1.1
v -2.3 1.4 1.3
v -2.3 1.4 1.2
v -2.3 1.4 1.1
v -2.3 1.4 0.9
v -2.3 1.4 -0.9
v -2.3 1.4 -1.1
v -2.3 1.5 1.4
v -2.3 1.5 1.3
v -2.3 1.5 1.1
v -2.3 1.5 -1.1
v -2.3 1.5 -1.2
v -2.2 1.2 0.8
v -2.2 1.2 0.5
v -2.2 1.2 0.2
v -2.2 1.2 -0.3
v -2.2 1.2 -0.4
v -2.2 1.2 -0.6
v -2.2 1.2 -0.8
v -2.2 1.3 0.8
v -2.2 1.3 0.5
v -2.2 1.3 0.2
v -2.2 1.3 -0.3
v -2.2 1.3 -0.6
v -2.2 1.3 -0.8
v -2 1 2.3
v -2 1 2.1
v -2 1.2 2.3
v -2 1.2 2.1
v -2 1.2 1.8
v -2 1.2 1.6
v -2 1.3 2
v -2 1.3 1.9
v -2 1.3 1.8
v -2 1.3 1.6
v -2 1.3 1.4
v -2 1.3 0.9
v -2 1.3 -0.7
v -2 1.3 -0.9
v -2 1.4 2
v -2 1.4 1.9
v -2 1.4 1.6
v -2 1.4 1.5
v -2 1.4 1.1
v -2 1.4 0.9
v -2 1.4 0.4
v -2 1.4 -0.5
v -2 1.4 -0.9
v -2 1.4 -1.1
v -2 1.5 1.4
v -2 1.5 1.3
v -2 1.5 1.2
v -2 1.5 1.1
v -2 1.5 -0.5
v -2 1.5 -1.1
v -2 1.6 2
v -2 1.6 1.8
v -2 1.6 1.5
v -2 1.6 1.4
v -2 1.6 1.2
v -2 1.6 0.4
v -2 1.7 1.8
v -2 1.7 1.4
v -2 1.7 1.3
v -1.9 1.4 0.4
v -1.9 1.4 0.1
v -1.9 1.5 0.4
v -1.9 1.5 0.1
v -1.8 1.4 0.1
v -1.8 1.4 0
v -1.8 1.4 -0.5
v -1.8 1.5 1.3
v -1.8 1.5 1.2
v -1.8 1.5 0.4
v -1.8 1.5 0.1
v -1.8 1.5 0
v -1.8 1.5 -0.5
v -1.8 1.5 -0.8
v -1.8 1.5 -1.1
v -1.8 1.6 1.3
v -1.8 1.6 1.2
v -1.8 1.6 1.1
v -1.8 1.6 0.4
v -1.8 1.6 -0.8
v -1.8 1.6 -0.9
v -1.8 1.6 -1
v -1.8 1.6 -1.1
v -1.8 1.7 1.3
v -1.8 1.7 1.2
v -1.8 1.7 1.1
v -1.8 1.7 0.8
v -1.8 1.7 0.5
v -1.8 1.7 0.2
v -1.8 1.7 -0.8
v -1.8 1.7 -0.9
v -1.8 1.7 -1
v -1.8 1.8 1.1
v -1.8 1.8 1
v -1.8 1.8 0.8
v -1.8 1.8 0.6
v -1.8 1.8 0.5
v -1.8 1.8 0.2
v -1.8 1.8 0.1
v -1.8 1.8 0
v -1.8 1.8 -0.3
v -1.8 1.8 -0.4
v -1.8 1.8 -0.8
v -1.8 1.9 1
v -1.8 1.9 0.8
v -1.8 1.9 0
v -1.8 1.9 -0.0999999
v -1.8 1.9 -0.3
v -1.8 1.9 -0.4
v -1.8 2 0.8
v -1.8 2 0.6
v -1.8 2 0.1
v -1.8 2 -0.0999999
v -2 1.2 2.1
v -2 1.2 2
v -2 1.3 2.1
v -2 1.3 2
v -1.8 1 2.3
v -1.8 1 2.1
v -1.8 1.2 2.3
v -1.8 1.2 2.1
v -1.7 1 2.1
v -1.7 1 1.8
v -1.7 1.1 2
v -1.7 1.1 1.8
v -1.7 1.2 2.1
v -1.7 1.2 2
v -1.6 1 1.8
v -1.6 1 1.7
v -1.6 1.1 1.8
v -1.6 1.1 1.7
v -1.6 1.6 1.8
v -1.6 1.6 1.7
v -1.6 1.7 1.8
v -1.6 1.7 1.7
v -1.5 1.1 2
v -1.5 1.1 1.7
v -1.5 1.4 -1.1
v -1.5 1.4 -1.2
v -1.5 1.5 -1.1
v -1.5 1.5 -1.2
v -1.5 1.6 2
v -1.5 1.6 1.7
v -1.3 1 1.7
v -1.3 1 -1.2
v -1.3 1.2 -1
v -1.3 1.2 -1.1
v -1.3 1.4 -1.1
v -1.3 1.4 -1.2
v -1.3 1.6 1.2
v -1.3 1.6 1.1
v -1.3 1.6 -1
v -1.3 1.6 -1.1
v -1.3 1.7 1.7
v -1.3 1.7 1.2
v -1.3 1.7 -0.8
v -1.3 1.7 -1
v -1.3 1.8 1.1
v -1.3 1.8 1
v -1.3 1.8 -0.4
v -1.3 1.8 -0.8
v -1.3 1.9 1
v -1.3 1.9 0.8
v -1.3 1.9 -0.0999999
v -1.3 1.9 -0.4
v -1.3 2 0.8
v -1.3 2 -0.0999999
v -2 1 2.3
v -2 1.2 2.3
v -1.8 1 2.3
v -1.8 1.2 2.3
v -2.3 1 2.1
v -2.3 1.2 2.1
v -2.3 1.3 2.1
v -2.1 1.2 2.1
v -2.1 1.3 2.1
v -2 1 2.1
v -2 1.2 2.1
v -2 1.3 2.1
v -1.8 1 2.1
v -1.8 1.2 2.1
v -1.7 1 2.1
v -1.7 1.2 2.1
v -2 1.2 2
v -2 1.3 2
v -2 1.4 2
v -2 1.6 2
v -1.9 1.4 2
v -1.9 1.6 2
v -1.7 1.1 2
v -1.7 1.2 2
v -1.5 1.1 2
v -1.5 1.6 2
v -2 1.6 1.8
v -2 1.7 1.8
v -1.9 1.6 1.8
v -1.7 1 1.8
v -1.7 1.1 1.8
v -1.6 1 1.8
v -1.6 1.1 1.8
v -1.6 1.6 1.8
v -1.6 1.7 1.8
v -1.6 1 1.7
v -1.6 1.1 1.7
v -1.6 1.6 1.7
v -1.6 1.7 1.7
v -1.5 1.1 1.7
v -1.5 1.6 1.7
v -1.5 1.7 1.7
v -1.3 1 1.7
v -1.3 1.7 1.7
v -2.3 1.2 1.6
v -2.3 1.3 1.6
v -2.2 1.2 1.6
v -2.2 1.3 1.6
v -2 1.2 1.6
v -2 1.3 1.6
v -2.3 1.3 1.4
v -2.3 1.5 1.4
v -2.2 1.3 1.4
v -2.2 1.5 1.4
v -2 1.3 1.4
v -2 1.5 1.4
v -2 1.5 1.2
v -2 1.6 1.2
v -1.8 1.5 1.2
v -1.8 1.6 1.2
v -2.4 1 1.1
v -2.4 1.3 1.1
v -2.3 1 1.1
v -2.3 1.3 1.1
v -1.8 1.6 1.1
v -1.8 1.7 1.1
v -1.8 1.8 1.1
v -1.4 1.7 1.1
v -1.4 1.8 1.1
v -1.3 1.6 1.1
v -1.3 1.8 1.1
v -1.8 1.8 1
v -1.8 1.9 1
v -1.4 1.8 1
v -1.3 1.8 1
v -1.3 1.9 1
v -2.5 1 0.9
v -2.5 1.2 0.9
v -2.4 1 0.9
v -2.4 1.2 0.9
v -1.8 1.9 0.8
v -1.8 2 0.8
v -1.3 1.9 0.8
v -1.3 2 0.8
v -2 1.4 -0.5
v -2 1.5 -0.5
v -1.8 1.4 -0.5
v -1.8 1.5 -0.5
v -2.4 1.2 -0.8
v -2.4 1.3 -0.8
v -2.2 1.2 -0.8
v -2.2 1.3 -0.8
v -2.3 1.3 -0.9
v -2.3 1.4 -0.9
v -2 1.3 -0.9
v -2 1.4 -0.9
v -2.3 1.4 -1.1
v -2.3 1.5 -1.1
v -2 1.4 -1.1
v -2 1.5 -1.1
v -2.3 1.2 1.8
v -2.3 1.3 1.8
v -2 1.2 1.8
v -2 1.3 1.8
v -2 1.5 1.3
v -2 1.7 1.3
v -1.9 1.6 1.3
v -1.9 1.7 1.3
v -1.8 1.5 1.3
v -1.8 1.6 1.3
v -1.8 1.7 1.3
v -1.8 1.6 1.2
v -1.8 1.7 1.2
v -1.3 1.6 1.2
v -1.3 1.7 1.2
v -2.3 1.4 1.1
v -2.3 1.5 1.1
v -2 1.4 1.1
v -2 1.5 1.1
v -2.3 1.3 0.9
v -2.3 1.4 0.9
v -2.2 1.3 0.9
v -2.2 1.4 0.9
v -2.1 1.3 0.9
v -2.1 1.4 0.9
v -2 1.3 0.9
v -2 1.4 0.9
v -2.4 1.2 0.8
v -2.4 1.3 0.8
v -2.2 1.2 0.8
v -2.2 1.3 0.8
v -2 1.4 0.4
v -2 1.6 0.4
v -1.9 1.4 0.4
v -1.9 1.5 0.4
v -1.8 1.5 0.4
v -1.8 1.6 0.4
v -1.9 1.4 0.1
v -1.9 1.5 0.1
v -1.8 1.4 0.1
v -1.8 1.5 0.1
v -1.8 1.9 -0.0999999
v -1.8 2 -0.0999999
v -1.7 1.9 -0.0999999
v -1.3 1.9 -0.0999999
v -1.3 2 -0.0999999
v -1.8 1.8 -0.4
v -1.8 1.9 -0.4
v -1.7 1.8 -0.4
v -1.3 1.8 -0.4
v -1.3 1.9 -0.4
v -1.8 1.7 -0.8
v -1.8 1.8 -0.8
v -1.7 1.7 -0.8
v -1.7 1.8 -0.8
v -1.3 1.7 -0.8
v -1.3 1.8 -0.8
v -2.5 1 -0.9
v -2.5 1.2 -0.9
v -2.4 1 -0.9
v -2.4 1.2 -0.9
v -1.8 1.6 -1
v -1.8 1.7 -1
v -1.6 1.6 -1
v -1.3 1.6 -1
v -1.3 1.7 -1
v -2.4 1 -1.1
v -2.4 1.2 -1.1
v -2.4 1.3 -1.1
v -2.3 1 -1.1
v -2.3 1.2 -1.1
v -2.3 1.3 -1.1
v -1.8 1.5 -1.1
v -1.8 1.6 -1.1
v -1.6 1.5 -1.1
v -1.6 1.6 -1.1
v -1.5 1.4 -1.1
v -1.5 1.5 -1.1
v -1.3 1.4 -1.1
v -1.3 1.6 -1.1
v -2.3 1 -1.2
v -2.3 1.5 -1.2
v -1.5 1.4 -1.2
v -1.5 1.5 -1.2
v -1.3 1 -1.2
v -1.3 1.4 -1.2
v -2 1 2.3
v -1.8 1 2.3
v -2.3 1 2.1
v -2 1 2.1
v -1.8 1 2.1
v -1.7 1 2.1
v -1.7 1 1.8
v -1.6 1 1.8
v -1.6 1 1.7
v -1.3 1 1.7
v -2.3 1 1.6
v -2.2 1 1.6
v -2.3 1 1.3
v -2.2 1 1.3
v -2.4 1 1.1
v -2.3 1 1.1
v -2.5 1 0.9
v -2.4 1 0.9
v -2.2 1 0.9
v -2.1 1 0.9
v -2.5 1 0.7
v -2.4 1 0.7
v -2.2 1 0.6
v -2.1 1 0.6
v -2.5 1 0.2
v -2.4 1 0.2
v -2.2 1 0.1
v -2.1 1 0.1
v -2.2 1 -0.2
v -2.1 1 -0.2
v -2.5 1 -0.9
v -2.4 1 -0.9
v -2.4 1 -1.1
v -2.3 1 -1.1
v -2.3 1 -1.2
v -1.3 1 -1.2
v -1.7 1.1 2
v -1.5 1.1 2
v -1.7 1.1 1.8
v -1.6 1.1 1.8
v -1.6 1.1 1.7
v -1.5 1.1 1.7
v -2 1.2 2.3
v -1.8 1.2 2.3
v -2 1.2 2.1
v -1.8 1.2 2.1
v -1.7 1.2 2.1
v -2 1.2 2
v -1.7 1.2 2
v -2.3 1.2 1.8
v -2 1.2 1.8
v -2.3 1.2 1.7
v -2.2 1.2 1.7
v -2.3 1.2 1.6
v -2.2 1.2 1.6
v -2 1.2 1.6
v -2.5 1.2 0.9
v -2.4 1.2 0.9
v -2.4 1.2 0.8
v -2.2 1.2 0.8
v -2.5 1.2 0.7
v -2.4 1.2 0.7
v -2.2 1.2 0.5
v -2.5 1.2 0.2
v -2.4 1.2 0.2
v -2.2 1.2 0.2
v -2.5 1.2 0.1
v -2.4 1.2 0.1
v -2.5 1.2 -0.3
v -2.4 1.2 -0.3
v -2.2 1.2 -0.3
v -2.4 1.2 -0.4
v -2.2 1.2 -0.4
v -2.2 1.2 -0.6
v -2.4 1.2 -0.8
v -2.2 1.2 -0.8
v -2.5 1.2 -0.9
v -2.4 1.2 -0.9
v -2.3 1.3 2.1
v -2.1 1.3 2.1
v -2 1.3 2.1
v -2.1 1.3 2
v -2 1.3 2
v -2 1.3 1.9
v -2.3 1.3 1.8
v -2 1.3 1.8
v -2.3 1.3 1.6
v -2.2 1.3 1.6
v -2 1.3 1.6
v -2.3 1.3 1.4
v -2.2 1.3 1.4
v -2 1.3 1.4
v -2.4 1.3 1.1
v -2.3 1.3 1.1
v -2.3 1.3 0.9
v -2.2 1.3 0.9
v -2.1 1.3 0.9
v -2 1.3 0.9
v -2.4 1.3 0.8
v -2.2 1.3 0.8
v -2.2 1.3 0.5
v -2.1 1.3 0.5
v -2.2 1.3 0.2
v -2.1 1.3 0.2
v -2.2 1.3 -0.3
v -2.1 1.3 -0.3
v -2.2 1.3 -0.6
v -2.1 1.3 -0.6
v -2.1 1.3 -0.7
v -2 1.3 -0.7
v -2.4 1.3 -0.8
v -2.2 1.3 -0.8
v -2.3 1.3 -0.9
v -2 1.3 -0.9
v -2.4 1.3 -1.1
v -2.3 1.3 -1.1
v -2.3 1.4 1.1
v -2 1.4 1.1
v -2.2 1.4 1
v -2.1 1.4 1
v -2.3 1.4 0.9
v -2.2 1.4 0.9
v -2.1 1.4 0.9
v -2 1.4 0.9
v -2 1.4 0.4
v -1.9 1.4 0.4
v -1.9 1.4 0.1
v -1.8 1.4 0.1
v -1.8 1.4 0
v -2 1.4 -0.5
v -1.8 1.4 -0.5
v -2.3 1.4 -0.9
v -2 1.4 -0.9
v -2.3 1.4 -1.1
v -2 1.4 -1.1
v -1.5 1.4 -1.1
v -1.3 1.4 -1.1
v -1.5 1.4 -1.2
v -1.3 1.4 -1.2
v -2.3 1.5 1.4
v -2.2 1.5 1.4
v -2 1.5 1.4
v -2.3 1.5 1.3
v -2.2 1.5 1.3
v -2 1.5 1.3
v -1.8 1.5 1.3
v -2 1.5 1.2
v -1.8 1.5 1.2
v -2.3 1.5 1.1
v -2 1.5 1.1
v -1.9 1.5 0.4
v -1.8 1.5 0.4
v -1.9 1.5 0.1
v -1.8 1.5 0.1
v -2 1.5 -0.5
v -1.8 1.5 -0.5
v -1.8 1.5 -0.8
v -2.3 1.5 -1.1
v -2 1.5 -1.1
v -1.8 1.5 -1.1
v -1.6 1.5 -1.1
v -1.5 1.5 -1.1
v -2.3 1.5 -1.2
v -1.5 1.5 -1.2
v -2 1.6 2
v -1.9 1.6 2
v -1.5 1.6 2
v -2 1.6 1.8
v -1.9 1.6 1.8
v -1.6 1.6 1.8
v -1.6 1.6 1.7
v -1.5 1.6 1.7
v -2 1.6 1.2
v -1.8 1.6 1.2
v -1.3 1.6 1.2
v -1.8 1.6 1.1
v -1.3 1.6 1.1
v -2 1.6 0.4
v -1.8 1.6 0.4
v -1.8 1.6 -1
v -1.6 1.6 -1
v -1.3 1.6 -1
v -1.8 1.6 -1.1
v -1.6 1.6 -1.1
v -1.3 1.6 -1.1
v -2 1.7 1.8
v -1.6 1.7 1.8
v -1.6 1.7 1.7
v -1.5 1.7 1.7
v -1.3 1.7 1.7
v -2 1.7 1.4
v -1.9 1.7 1.4
v -1.6 1.7 1.4
v -1.5 1.7 1.4
v -2 1.7 1.3
v -1.9 1.7 1.3
v -1.8 1.7 1.3
v -1.6 1.7 1.3
v -1.8 1.7 1.2
v -1.3 1.7 1.2
v -1.8 1.7 -0.8
v -1.7 1.7 -0.8
v -1.3 1.7 -0.8
v -1.8 1.7 -0.9
v -1.7 1.7 -0.9
v -1.8 1.7 -1
v -1.3 1.7 -1
v -1.8 1.8 1.1
v -1.4 1.8 1.1
v -1.3 1.8 1.1
v -1.8 1.8 1
v -1.4 1.8 1
v -1.3 1.8 1
v -1.8 1.8 -0.4
v -1.7 1.8 -0.4
v -1.3 1.8 -0.4
v -1.8 1.8 -0.8
v -1.7 1.8 -0.8
v -1.3 1.8 -0.8
v -1.8 1.9 1
v -1.3 1.9 1
v -1.8 1.9 0.8
v -1.3 1.9 0.8
v -1.8 1.9 -0.0999999
v -1.7 1.9 -0.0999999
v -1.3 1.9 -0.0999999
v -1.8 1.9 -0.3
v -1.7 1.9 -0.3
v -1.8 1.9 -0.4
v -1.3 1.9 -0.4
v -1.8 2 0.8
v -1.3 2 0.8
v -1.8 2 0.6
v -1.7 2 0.6
v -1.8 2 0.1
v -1.7 2 0.1
v -1.8 2 -0.0999999
v -1.3 2 -0.0999999

# faces
f 5/2/1 4/2/1 3/2/1
f 6/2/1 4/2/1 5/2/1
f 7/2/1 2/2/1 1/2/1
f 8/1/1 3/1/1 2/1/1
f 8/2/1 2/2/1 7/2/1
f 9/2/1 5/2/1 3/2/1
f 9/1/1 3/1/1 8/1/1
f 10/1/1 6/1/1 5/1/1
f 10/2/1 5/2/1 9/2/1
f 11/2/1 4/2/1 6/2/1
f 11/1/1 6/1/1 10/1/1
f 12/2/1 4/2/1 11/2/1
f 17/2/1 14/2/1 13/2/1
f 20/2/1 16/2/1 15/2/1
f 21/2/1 16/2/1 20/2/1
f 22/2/1 18/2/1 17/2/1
f 22/2/1 17/2/1 13/2/1
f 23/2/1 18/2/1 22/2/1
f 24/1/1 21/1/1 20/1/1
f 24/1/1 20/1/1 19/1/1
f 25/1/1 21/1/1 24/1/1
f 32/2/1 27/2/1 26/2/1
f 33/1/1 28/1/1 27/1/1
f 33/2/1 27/2/1 32/2/1
f 34/2/1 29/2/1 28/2/1
f 34/1/1 28/1/1 33/1/1
f 35/2/1 29/2/1 34/2/1
f 36/2/1 32/2/1 26/2/1
f 37/2/1 32/2/1 36/2/1
f 38/1/1 33/1/1 32/1/1
f 38/2/1 32/2/1 37/2/1
f 38/1/1 34/1/1 33/1/1
f 38/1/1 35/1/1 34/1/1
f 39/1/1 35/1/1 38/1/1
f 40/2/1 31/2/1 30/2/1
f 41/1/1 37/1/1 36/1/1
f 42/1/1 37/1/1 41/1/1
f 43/1/1 35/1/1 39/1/1
f 44/1/1 35/1/1 43/1/1
f 45/2/1 29/2/1 35/2/1
f 48/2/1 31/2/1 40/2/1
f 49/1/1 35/1/1 44/1/1
f 50/2/1 46/2/1 45/2/1
f 50/1/1 35/1/1 49/1/1
f 50/2/1 45/2/1 35/2/1
f 51/2/1 46/2/1 50/2/1
f 52/2/1 46/2/1 51/2/1
f 53/2/1 48/2/1 47/2/1
f 54/2/1 31/2/1 48/2/1
f 54/2/1 48/2/1 53/2/1
f 55/1/1 49/1/1 44/1/1
f 56/2/1 51/2/1 50/2/1
f 56/1/1 49/1/1 55/1/1
f 56/2/1 50/2/1 49/2/1
f 57/2/1 51/2/1 56/2/1
f 58/2/1 31/2/1 54/2/1
f 59/2/1 31/2/1 58/2/1
f 67/1/1 61/1/1 60/1/1
f 68/2/1 62/2/1 61/2/1
f 68/1/1 61/1/1 67/1/1
f 69/1/1 63/1/1 62/1/1
f 69/2/1 62/2/1 68/2/1
f 70/2/1 64/2/1 63/2/1
f 70/1/1 63/1/1 69/1/1
f 70/2/1 65/2/1 64/2/1
f 71/1/1 66/1/1 65/1/1
f 71/2/1 65/2/1 70/2/1
f 72/1/1 66/1/1 71/1/1
f 75/2/1 74/2/1 73/2/1
f 76/2/1 74/2/1 75/2/1
f 81/2/1 78/2/1 77/2/1
f 82/2/1 78/2/1 81/2/1
f 87/2/1 80/2/1 79/2/1
f 88/1/1 81/1/1 80/1/1
f 88/2/1 80/2/1 87/2/1
f 88/1/1 82/1/1 81/1/1
f 89/2/1 83/2/1 82/2/1
f 89/1/1 82/1/1 88/1/1
f 90/2/1 83/2/1 89/2/1
f 92/2/1 86/2/1 85/2/1
f 92/2/1 85/2/1 84/2/1
f 93/2/1 86/2/1 92/2/1
f 94/2/1 86/2/1 93/2/1
f 95/2/1 86/2/1 94/2/1
f 97/2/1 83/2/1 90/2/1
f 100/2/1 92/2/1 91/2/1
f 100/2/1 93/2/1 92/2/1
f 101/2/1 96/2/1 95/2/1
f 101/2/1 95/2/1 94/2/1
f 102/2/1 96/2/1 101/2/1
f 103/1/1 90/1/1 89/1/1
f 103/1/1 88/1/1 87/1/1
f 103/1/1 89/1/1 88/1/1
f 104/1/1 90/1/1 103/1/1
f 105/2/1 98/2/1 97/2/1
f 105/1/1 90/1/1 104/1/1
f 105/2/1 97/2/1 90/2/1
f 106/2/1 98/2/1 105/2/1
f 107/2/1 100/2/1 99/2/1
f 108/2/1 93/2/1 100/2/1
f 108/2/1 100/2/1 107/2/1
f 109/1/1 105/1/1 104/1/1
f 109/1/1 106/1/1 105/1/1
f 110/2/1 98/2/1 106/2/1
f 110/1/1 106/1/1 109/1/1
f 111/2/1 98/2/1 110/2/1
f 114/2/1 113/2/1 112/2/1
f 115/2/1 113/2/1 114/2/1
f 122/2/1 117/2/1 116/2/1
f 123/1/1 118/1/1 117/1/1
f 123/2/1 117/2/1 122/2/1
f 124/1/1 118/1/1 123/1/1
f 127/2/1 120/2/1 119/2/1
f 128/2/1 120/2/1 127/2/1
f 130/2/1 122/2/1 121/2/1
f 131/2/1 126/2/1 125/2/1
f 131/1/1 123/1/1 122/1/1
f 131/1/1 124/1/1 123/1/1
f 131/1/1 125/1/1 124/1/1
f 132/2/1 126/2/1 131/2/1
f 133/2/1 126/2/1 132/2/1
f 134/2/1 126/2/1 133/2/1
f 135/2/1 128/2/1 127/2/1
f 136/2/1 128/2/1 135/2/1
f 137/2/1 130/2/1 129/2/1
f 138/2/1 130/2/1 137/2/1
f 139/2/1 130/2/1 138/2/1
f 140/2/1 122/2/1 130/2/1
f 140/2/1 130/2/1 139/2/1
f 141/1/1 131/1/1 122/1/1
f 141/1/1 132/1/1 131/1/1
f 142/2/1 133/2/1 132/2/1
f 142/1/1 132/1/1 141/1/1
f 143/2/1 133/2/1 142/2/1
f 144/1/1 138/1/1 137/1/1
f 145/1/1 138/1/1 144/1/1
f 146/2/1 139/2/1 138/2/1
f 146/1/1 138/1/1 145/1/1
f 147/2/1 139/2/1 146/2/1
f 148/1/1 140/1/1 139/1/1
f 148/2/1 139/2/1 147/2/1
f 149/2/1 122/2/1 140/2/1
f 149/1/1 140/1/1 148/1/1
f 150/1/1 141/1/1 122/1/1
f 150/2/1 122/2/1 149/2/1
f 151/1/1 141/1/1 150/1/1
f 152/1/1 141/1/1 151/1/1
f 153/1/1 141/1/1 152/1/1
f 154/1/1 141/1/1 153/1/1
f 155/2/1 147/2/1 146/2/1
f 155/2/1 146/2/1 145/2/1
f 156/2/1 147/2/1 155/2/1
f 157/1/1 152/1/1 151/1/1
f 157/2/1 151/2/1 150/2/1
f 158/1/1 152/1/1 157/1/1
f 159/2/1 153/2/1 152/2/1
f 159/1/1 152/1/1 158/1/1
f 160/2/1 153/2/1 159/2/1
f 161/2/1 147/2/1 156/2/1
f 162/1/1 148/1/1 147/1/1
f 162/2/1 147/2/1 161/2/1
f 162/1/1 149/1/1 148/1/1
f 162/1/1 150/1/1 149/1/1
f 163/2/1 158/2/1 157/2/1
f 163/1/1 150/1/1 162/1/1
f 163/2/1 157/2/1 150/2/1
f 164/2/1 158/2/1 163/2/1
f 165/2/2 166/2/2 167/2/2
f 167/2/2 166/2/2 168/2/2
f 169/2/2 170/2/2 171/2/2
f 171/2/2 170/2/2 172/2/2
f 173/2/2 174/2/2 175/2/2
f 175/2/2 174/2/2 176/2/2
f 173/2/2 175/2/2 177/2/2
f 177/2/2 175/2/2 178/2/2
f 179/2/2 180/2/2 181/2/2
f 181/2/2 180/2/2 182/2/2
f 183/1/2 184/1/2 185/1/2
f 185/1/2 184/1/2 186/1/2
f 189/2/2 190/2/2 191/2/2
f 191/2/2 190/2/2 192/2/2
f 187/2/2 188/2/2 193/2/2
f 193/2/2 188/2/2 194/2/2
f 195/2/2 196/2/2 197/2/2
f 197/2/2 196/2/2 198/2/2
f 197/1/2 198/1/2 199/1/2
f 198/2/2 196/2/2 199/2/2
f 199/2/2 196/2/2 200/2/2
f 195/2/2 197/2/2 201/2/2
f 201/2/2 197/2/2 202/2/2
f 197/1/2 199/1/2 203/1/2
f 202/2/2 197/2/2 203/2/2
f 203/1/2 199/1/2 204/1/2
f 195/2/2 201/2/2 205/2/2
f 205/2/2 201/2/2 206/2/2
f 202/2/2 203/2/2 207/2/2
f 207/2/2 203/2/2 208/2/2
f 202/2/2 207/2/2 209/2/2
f 209/2/2 207/2/2 210/2/2
f 210/2/2 207/2/2 211/2/2
f 211/2/2 207/2/2 212/2/2
f 210/2/2 211/2/2 213/2/2
f 213/2/2 211/2/2 214/2/2
f 214/2/2 211/2/2 215/2/2
f 215/2/2 211/2/2 216/2/2
f 214/2/2 215/2/2 217/2/2
f 217/2/2 215/2/2 218/2/2
f 221/2/3 220/2/3 219/2/3
f 222/2/3 220/2/3 221/2/3
f 226/2/3 224/2/3 223/2/3
f 226/1/3 225/1/3 224/1/3
f 227/1/3 225/1/3 226/1/3
f 228/2/3 226/2/3 223/2/3
f 228/2/3 227/2/3 226/2/3
f 229/2/3 227/2/3 228/2/3
f 230/2/3 227/2/3 229/2/3
f 233/2/3 232/2/3 231/2/3
f 234/2/3 232/2/3 233/2/3
f 239/2/3 236/2/3 235/2/3
f 239/1/3 238/1/3 237/1/3
f 239/2/3 237/2/3 236/2/3
f 240/1/3 238/1/3 239/1/3
f 242/2/3 239/2/3 235/2/3
f 242/2/3 240/2/3 239/2/3
f 243/2/3 242/2/3 241/2/3
f 244/2/3 240/2/3 242/2/3
f 244/2/3 242/2/3 243/2/3
f 247/1/3 246/1/3 245/1/3
f 250/2/3 249/2/3 248/2/3
f 251/2/3 249/2/3 250/2/3
f 252/1/3 246/1/3 247/1/3
f 253/1/3 246/1/3 252/1/3
f 258/2/3 255/2/3 254/2/3
f 259/1/3 257/1/3 256/1/3
f 260/1/3 257/1/3 259/1/3
f 261/2/3 258/2/3 254/2/3
f 261/2/3 259/2/3 258/2/3
f 261/2/3 260/2/3 259/2/3
f 262/2/3 260/2/3 261/2/3
f 265/1/3 264/1/3 263/1/3
f 266/1/3 264/1/3 265/1/3
f 267/2/3 266/2/3 265/2/3
f 268/2/3 266/2/3 267/2/3
f 271/1/3 270/1/3 269/1/3
f 272/1/3 270/1/3 271/1/3
f 273/2/3 272/2/3 271/2/3
f 274/2/3 272/2/3 273/2/3
f 277/2/3 276/2/3 275/2/3
f 278/2/3 276/2/3 277/2/3
f 281/2/3 280/2/3 279/2/3
f 282/2/3 280/2/3 281/2/3
f 286/2/3 284/2/3 283/2/3
f 286/1/3 285/1/3 284/1/3
f 287/1/3 285/1/3 286/1/3
f 288/2/3 286/2/3 283/2/3
f 288/2/3 287/2/3 286/2/3
f 289/2/3 287/2/3 288/2/3
f 292/2/3 291/2/3 290/2/3
f 293/2/3 291/2/3 292/2/3
f 294/2/3 291/2/3 293/2/3
f 297/2/3 296/2/3 295/2/3
f 298/2/3 296/2/3 297/2/3
f 301/2/3 300/2/3 299/2/3
f 302/2/3 300/2/3 301/2/3
f 305/2/3 304/2/3 303/2/3
f 306/2/3 304/2/3 305/2/3
f 309/1/3 308/1/3 307/1/3
f 310/1/3 308/1/3 309/1/3
f 313/2/3 312/2/3 311/2/3
f 314/2/3 312/2/3 313/2/3
f 317/2/3 316/2/3 315/2/3
f 318/2/3 316/2/3 317/2/3
f 319/1/4 320/1/4 321/1/4
f 321/1/4 320/1/4 322/1/4
f 323/2/4 324/2/4 325/2/4
f 325/2/4 324/2/4 326/2/4
f 323/2/4 325/2/4 327/2/4
f 325/1/4 326/1/4 328/1/4
f 327/2/4 325/2/4 328/2/4
f 328/1/4 326/1/4 329/1/4
f 330/2/4 331/2/4 332/2/4
f 332/2/4 331/2/4 333/2/4
f 334/2/4 335/2/4 336/2/4
f 336/2/4 335/2/4 337/2/4
f 338/2/4 339/2/4 340/2/4
f 340/2/4 339/2/4 341/2/4
f 340/1/4 341/1/4 342/1/4
f 342/1/4 341/1/4 343/1/4
f 342/2/4 343/2/4 344/2/4
f 344/2/4 343/2/4 345/2/4
f 346/2/4 347/2/4 348/2/4
f 348/2/4 347/2/4 349/2/4
f 350/2/4 351/2/4 352/2/4
f 352/2/4 351/2/4 353/2/4
f 353/2/4 351/2/4 354/2/4
f 354/2/4 351/2/4 355/2/4
f 356/2/4 357/2/4 358/2/4
f 358/2/4 357/2/4 359/2/4
f 360/2/4 361/2/4 362/2/4
f 362/2/4 361/2/4 363/2/4
f 363/2/4 361/2/4 364/2/4
f 365/2/4 366/2/4 367/2/4
f 367/2/4 366/2/4 368/2/4
f 368/2/4 366/2/4 369/2/4
f 370/1/4 371/1/4 372/1/4
f 372/1/4 371/1/4 373/1/4
f 372/2/4 373/2/4 374/2/4
f 374/2/4 373/2/4 375/2/4
f 376/2/4 377/2/4 378/2/4
f 378/2/4 377/2/4 379/2/4
f 380/2/4 381/2/4 382/2/4
f 382/2/4 381/2/4 383/2/4
f 383/2/4 381/2/4 384/2/4
f 385/2/4 386/2/4 388/2/4
f 386/1/4 387/1/4 389/1/4
f 388/2/4 386/2/4 389/2/4
f 389/1/4 387/1/4 390/1/4
f 391/2/4 392/2/4 393/2/4
f 393/2/4 392/2/4 394/2/4
f 393/1/4 394/1/4 396/1/4
f 395/1/4 396/1/4 397/1/4
f 396/1/4 394/1/4 398/1/4
f 397/1/4 396/1/4 398/1/4
f 399/2/4 400/2/4 401/2/4
f 401/2/4 400/2/4 402/2/4
f 399/2/4 401/2/4 403/2/4
f 403/2/4 401/2/4 404/2/4
f 408/2/5 406/2/5 405/2/5
f 409/2/5 406/2/5 408/2/5
f 411/2/5 408/2/5 407/2/5
f 411/2/5 410/2/5 409/2/5
f 411/2/5 409/2/5 408/2/5
f 413/2/5 412/2/5 411/2/5
f 415/2/5 411/2/5 407/2/5
f 415/2/5 414/2/5 413/2/5
f 415/2/5 413/2/5 411/2/5
f 416/2/5 414/2/5 415/2/5
f 417/1/5 416/1/5 415/1/5
f 418/2/5 414/2/5 416/2/5
f 418/1/5 416/1/5 417/1/5
f 420/2/5 418/2/5 417/2/5
f 422/2/5 420/2/5 419/2/5
f 423/2/5 414/2/5 418/2/5
f 423/2/5 418/2/5 420/2/5
f 423/2/5 420/2/5 422/2/5
f 424/2/5 414/2/5 423/2/5
f 425/2/5 422/2/5 421/2/5
f 425/2/5 423/2/5 422/2/5
f 426/2/5 423/2/5 425/2/5
f 427/1/5 424/1/5 423/1/5
f 427/2/5 423/2/5 426/2/5
f 428/2/5 414/2/5 424/2/5
f 428/1/5 424/1/5 427/1/5
f 429/1/5 426/1/5 425/1/5
f 430/2/5 427/2/5 426/2/5
f 430/1/5 426/1/5 429/1/5
f 430/2/5 428/2/5 427/2/5
f 431/2/5 430/2/5 429/2/5
f 431/2/5 428/2/5 430/2/5
f 432/2/5 414/2/5 428/2/5
f 432/2/5 428/2/5 431/2/5
f 433/2/5 431/2/5 429/2/5
f 433/1/5 432/1/5 431/1/5
f 434/2/5 414/2/5 432/2/5
f 434/1/5 432/1/5 433/1/5
f 435/2/5 433/2/5 429/2/5
f 435/2/5 434/2/5 433/2/5
f 436/2/5 434/2/5 435/2/5
f 437/2/5 434/2/5 436/2/5
f 438/2/5 434/2/5 437/2/5
f 439/2/5 434/2/5 438/2/5
f 440/2/5 414/2/5 434/2/5
f 440/2/5 434/2/5 439/2/5
f 443/2/5 442/2/5 441/2/5
f 444/2/5 442/2/5 443/2/5
f 445/2/5 442/2/5 444/2/5
f 446/2/5 442/2/5 445/2/5
f 447/2/6 448/2/6 449/2/6
f 449/2/6 448/2/6 450/2/6
f 449/2/6 450/2/6 452/2/6
f 450/2/6 451/2/6 452/2/6
f 452/2/6 451/2/6 453/2/6
f 454/2/6 455/2/6 456/2/6
f 456/2/6 455/2/6 457/2/6
f 456/1/6 457/1/6 458/1/6
f 457/2/6 455/2/6 459/2/6
f 458/1/6 457/1/6 459/1/6
f 459/2/6 455/2/6 460/2/6
f 461/2/6 462/2/6 463/2/6
f 461/2/6 463/2/6 465/2/6
f 463/2/6 464/2/6 465/2/6
f 465/2/6 464/2/6 466/2/6
f 466/2/6 464/2/6 467/2/6
f 465/1/6 466/1/6 468/1/6
f 466/2/6 467/2/6 469/2/6
f 468/1/6 466/1/6 469/1/6
f 469/2/6 467/2/6 470/2/6
f 468/2/6 469/2/6 471/2/6
f 469/1/6 470/1/6 472/1/6
f 471/2/6 469/2/6 472/2/6
f 471/1/6 472/1/6 473/1/6
f 472/1/6 470/1/6 474/1/6
f 473/1/6 472/1/6 474/1/6
f 474/1/6 470/1/6 475/1/6
f 473/2/6 474/2/6 476/2/6
f 474/1/6 475/1/6 476/1/6
f 476/1/6 475/1/6 477/1/6
f 476/2/6 477/2/6 478/2/6
f 473/2/6 476/2/6 479/2/6
f 476/2/6 478/2/6 479/2/6
f 479/2/6 478/2/6 480/2/6
f 473/2/6 479/2/6 481/2/6
f 481/2/6 479/2/6 482/2/6
f 483/1/6 484/1/6 486/1/6
f 484/2/6 485/2/6 486/2/6
f 486/2/6 485/2/6 487/2/6
f 486/1/6 487/1/6 488/1/6
f 483/1/6 486/1/6 489/1/6
f 486/1/6 488/1/6 489/1/6
f 489/1/6 488/1/6 490/1/6
f 491/1/6 492/1/6 494/1/6
f 492/2/6 493/2/6 495/2/6
f 494/1/6 492/1/6 495/1/6
f 495/2/6 493/2/6 496/2/6
f 497/2/6 498/2/6 499/2/6
f 497/2/6 499/2/6 503/2/6
f 499/2/6 500/2/6 503/2/6
f 500/1/6 501/1/6 504/1/6
f 503/2/6 500/2/6 504/2/6
f 504/1/6 501/1/6 505/1/6
f 501/2/6 502/2/6 506/2/6
f 505/1/6 501/1/6 506/1/6
f 505/2/6 506/2/6 507/2/6
f 506/2/6 502/2/6 508/2/6
f 507/2/6 506/2/6 508/2/6
f 507/1/6 508/1/6 509/1/6
f 508/2/6 502/2/6 510/2/6
f 509/1/6 508/1/6 510/1/6
f 509/2/6 510/2/6 511/2/6
f 510/2/6 502/2/6 512/2/6
f 511/2/6 510/2/6 512/2/6
f 511/1/6 512/1/6 513/1/6
f 512/2/6 502/2/6 513/2/6
f 513/2/6 502/2/6 514/2/6
f 511/1/6 513/1/6 516/1/6
f 513/1/6 514/1/6 516/1/6
f 515/1/6 516/1/6 517/1/6
f 516/1/6 514/1/6 518/1/6
f 517/1/6 516/1/6 518/1/6
f 515/1/6 517/1/6 519/1/6
f 519/1/6 517/1/6 520/1/6
f 521/2/6 522/2/6 523/2/6
f 523/2/6 522/2/6 524/2/6
f 521/2/6 523/2/6 525/2/6
f 523/1/6 524/1/6 526/1/6
f 525/2/6 523/2/6 526/2/6
f 524/2/6 522/2/6 527/2/6
f 526/1/6 524/1/6 527/1/6
f 527/2/6 522/2/6 528/2/6
f 529/2/6 530/2/6 531/2/6
f 531/2/6 532/2/6 533/2/6
f 529/2/6 531/2/6 534/2/6
f 531/2/6 533/2/6 534/2/6
f 534/2/6 533/2/6 535/2/6
f 536/2/6 537/2/6 538/2/6
f 538/2/6 537/2/6 539/2/6
f 540/2/6 541/2/6 542/2/6
f 542/2/6 541/2/6 543/2/6
f 544/1/6 545/1/6 547/1/6
f 545/2/6 546/2/6 548/2/6
f 547/1/6 545/1/6 548/1/6
f 548/2/6 546/2/6 549/2/6
f 547/2/6 548/2/6 551/2/6
f 549/2/6 550/2/6 551/2/6
f 548/2/6 549/2/6 551/2/6
f 551/2/6 550/2/6 552/2/6
f 547/2/6 551/2/6 553/2/6
f 553/2/6 551/2/6 554/2/6
f 555/2/6 556/2/6 557/2/6
f 557/2/6 556/2/6 558/2/6
f 559/2/6 560/2/6 561/2/6
f 559/2/6 561/2/6 563/2/6
f 563/2/6 561/2/6 564/2/6
f 563/2/6 564/2/6 567/2/6
f 565/2/6 566/2/6 567/2/6
f 564/2/6 565/2/6 567/2/6
f 562/2/6 563/2/6 567/2/6
f 567/2/6 566/2/6 568/2/6
f 569/1/6 570/1/6 572/1/6
f 570/2/6 571/2/6 573/2/6
f 572/1/6 570/1/6 573/1/6
f 573/2/6 571/2/6 574/2/6
f 574/2/6 571/2/6 575/2/6
f 575/2/6 571/2/6 576/2/6
f 577/2/6 578/2/6 580/2/6
f 578/2/6 579/2/6 580/2/6
f 580/2/6 579/2/6 581/2/6
f 577/2/6 580/2/6 582/2/6
f 582/2/6 580/2/6 583/2/6
f 584/2/6 585/2/6 587/2/6
f 585/1/6 586/1/6 588/1/6
f 587/2/6 585/2/6 588/2/6
f 588/1/6 586/1/6 589/1/6
f 590/1/6 591/1/6 592/1/6
f 590/1/6 592/1/6 595/1/6
f 592/1/6 593/1/6 595/1/6
f 595/1/6 593/1/6 596/1/6
f 596/1/6 593/1/6 597/1/6
f 593/2/6 594/2/6 598/2/6
f 597/1/6 593/1/6 598/1/6
f 595/2/6 596/2/6 599/2/6
f 596/1/6 597/1/6 600/1/6
f 599/2/6 596/2/6 600/2/6
f 600/1/6 597/1/6 601/1/6
f 597/2/6 598/2/6 602/2/6
f 601/1/6 597/1/6 602/1/6
f 601/2/6 602/2/6 603/2/6
f 598/2/6 594/2/6 604/2/6
f 603/2/6 602/2/6 604/2/6
f 602/2/6 598/2/6 604/2/6
f 605/1/6 606/1/6 608/1/6
f 606/2/6 607/2/6 609/2/6
f 608/1/6 606/1/6 609/1/6
f 608/2/6 609/2/6 610/2/6
f 609/2/6 607/2/6 611/2/6
f 610/2/6 609/2/6 611/2/6
f 612/1/6 613/1/6 615/1/6
f 613/2/6 614/2/6 616/2/6
f 615/1/6 613/1/6 616/1/6
f 616/2/6 614/2/6 617/2/6
f 618/1/6 619/1/6 621/1/6
f 619/2/6 620/2/6 622/2/6
f 621/1/6 619/1/6 622/1/6
f 622/2/6 620/2/6 623/2/6
f 624/2/6 625/2/6 626/2/6
f 626/2/6 625/2/6 627/2/6
f 628/1/6 629/1/6 631/1/6
f 629/2/6 630/2/6 632/2/6
f 631/1/6 629/1/6 632/1/6
f 631/2/6 632/2/6 633/2/6
f 632/2/6 630/2/6 634/2/6
f 633/2/6 632/2/6 634/2/6
f 635/2/6 636/2/6 637/2/6
f 637/2/6 636/2/6 638/2/6
f 637/1/6 638/1/6 639/1/6
f 638/2/6 636/2/6 640/2/6
f 639/1/6 638/1/6 640/1/6
f 639/2/6 640/2/6 641/2/6
f 640/2/6 636/2/6 642/2/6
f 641/2/6 640/2/6 642/2/6
