# MagicaVoxel @ Ephtracy

# group
o 

# material
mtllib Objetos jogaveis.mtl
usemtl palette

# normals
vn -1 0 0
vn 1 0 0
vn 0 0 1
vn 0 0 -1
vn 0 -1 0
vn 0 1 0

# texcoords
vt 0.314453 0.5
vt 0.349609 0.5
vt 0.537109 0.5
vt 0.955078 0.5
vt 0.982422 0.5

# verts
v -0.4 11.4 25.4
v -0.4 11.4 25.3
v -0.4 12 25.4
v -0.4 12 25.3
v -0.3 9.7 24.7
v -0.3 9.7 24.6
v -0.3 10.1 24.7
v -0.3 10.1 24.6
v -0.3 11.3 25.4
v -0.3 11.3 25.3
v -0.3 11.4 25.4
v -0.3 11.4 25.3
v -0.2 9.6 24.7
v -0.2 9.6 24.6
v -0.2 9.7 24.7
v -0.2 9.7 24.6
v -0.2 9.7 24.5
v -0.2 10.1 24.7
v -0.2 10.1 24.6
v -0.2 10.1 24.5
v -0.2 10.2 24.7
v -0.2 10.2 24.6
v -0.2 10.4 25.5
v -0.2 10.4 25.2
v -0.2 10.8 25.5
v -0.2 10.8 25.2
v -0.2 11.4 25.4
v -0.2 11.4 25.3
v -0.2 11.9 25.4
v -0.2 11.9 25.3
v -0.1 8.8 24.7
v -0.1 8.8 24.6
v -0.1 9.6 24.7
v -0.1 9.6 24.6
v -0.1 10.8 25.4
v -0.1 10.8 25.3
v -0.1 11.3 25.4
v -0.1 11.3 25.3
v 0 11.4 25.4
v 0 11.4 25.3
v 0 11.9 25.4
v 0 11.9 25.3
v 0.1 9.7 24.7
v 0.1 9.7 24.6
v 0.1 10.1 24.7
v 0.1 10.1 24.6
v 0.2 11.4 25.4
v 0.2 11.4 25.3
v 0.2 11.9 25.4
v 0.2 11.9 25.3
v 0.7 8.9 23.7
v 0.7 8.9 23.5
v 0.7 10.1 23.7
v 0.7 10.1 23.5
v 0.7 11.4 26.7
v 0.7 11.4 26.6
v 0.7 11.9 26.7
v 0.7 11.9 26.6
v 0.8 8.7 23.7
v 0.8 8.7 23.5
v 0.8 8.9 23.8
v 0.8 8.9 23.7
v 0.8 8.9 23.5
v 0.8 8.9 23.4
v 0.8 10.1 23.8
v 0.8 10.1 23.7
v 0.8 10.1 23.5
v 0.8 10.1 23.4
v 0.8 10.3 23.7
v 0.8 10.3 23.5
v 0.8 10.4 26.8
v 0.8 10.4 26.5
v 0.8 10.8 26.8
v 0.8 10.8 26.5
v 0.8 11.3 26.7
v 0.8 11.3 26.6
v 0.8 11.4 26.7
v 0.8 11.4 26.6
v 0.8 11.9 26.7
v 0.8 11.9 26.6
v 0.8 12 26.7
v 0.8 12 26.6
v 0.9 10.8 26.7
v 0.9 10.8 26.6
v 0.9 11.3 26.8
v 0.9 11.3 26.7
v 0.9 11.3 26.6
v 0.9 11.3 26.5
v 0.9 11.4 26.9
v 0.9 11.4 26.8
v 0.9 11.4 26.5
v 0.9 11.4 26.4
v 0.9 11.5 26.8
v 0.9 11.5 26.7
v 0.9 11.5 26.6
v 0.9 11.5 26.5
v 0.9 11.8 26.8
v 0.9 11.8 26.7
v 0.9 11.8 26.6
v 0.9 11.8 26.5
v 0.9 11.9 26.9
v 0.9 11.9 26.8
v 0.9 11.9 26.5
v 0.9 11.9 26.4
v 0.9 12 26.8
v 0.9 12 26.7
v 0.9 12 26.6
v 0.9 12 26.5
v 1 11.4 26.7
v 1 11.4 26.6
v 1 11.5 26.7
v 1 11.5 26.6
v 1 11.8 26.7
v 1 11.8 26.6
v 1 11.9 26.7
v 1 11.9 26.6
v 1.1 11.5 26.7
v 1.1 11.5 26.6
v 1.1 11.8 26.7
v 1.1 11.8 26.6
v -0.3 11.4 25.4
v -0.3 11.4 25.3
v -0.3 11.9 25.4
v -0.3 11.9 25.3
v -0.2 9.7 24.7
v -0.2 9.7 24.6
v -0.2 10.1 24.7
v -0.2 10.1 24.6
v -0.1 11.4 25.4
v -0.1 11.4 25.3
v -0.1 11.9 25.4
v -0.1 11.9 25.3
v 0 8.8 24.7
v 0 8.8 24.6
v 0 9.6 24.7
v 0 9.6 24.6
v 0 10.8 25.4
v 0 10.8 25.3
v 0 11.3 25.4
v 0 11.3 25.3
v 0.1 9.6 24.7
v 0.1 9.6 24.6
v 0.1 9.7 24.7
v 0.1 9.7 24.6
v 0.1 9.7 24.5
v 0.1 10.1 24.7
v 0.1 10.1 24.6
v 0.1 10.1 24.5
v 0.1 10.2 24.7
v 0.1 10.2 24.6
v 0.1 10.4 25.5
v 0.1 10.4 25.2
v 0.1 10.8 25.5
v 0.1 10.8 25.2
v 0.1 11.4 25.4
v 0.1 11.4 25.3
v 0.1 11.9 25.4
v 0.1 11.9 25.3
v 0.2 9.7 24.7
v 0.2 9.7 24.6
v 0.2 10.1 24.7
v 0.2 10.1 24.6
v 0.2 11.3 25.4
v 0.2 11.3 25.3
v 0.2 11.4 25.4
v 0.2 11.4 25.3
v 0.3 11.4 25.4
v 0.3 11.4 25.3
v 0.3 12 25.4
v 0.3 12 25.3
v 0.8 11.5 26.7
v 0.8 11.5 26.6
v 0.8 11.8 26.7
v 0.8 11.8 26.6
v 0.9 11.4 26.7
v 0.9 11.4 26.6
v 0.9 11.5 26.7
v 0.9 11.5 26.6
v 0.9 11.8 26.7
v 0.9 11.8 26.6
v 0.9 11.9 26.7
v 0.9 11.9 26.6
v 1 8.7 23.7
v 1 8.7 23.5
v 1 8.9 23.8
v 1 8.9 23.7
v 1 8.9 23.5
v 1 8.9 23.4
v 1 10.1 23.8
v 1 10.1 23.7
v 1 10.1 23.5
v 1 10.1 23.4
v 1 10.3 23.7
v 1 10.3 23.5
v 1 10.8 26.7
v 1 10.8 26.6
v 1 11.3 26.8
v 1 11.3 26.7
v 1 11.3 26.6
v 1 11.3 26.5
v 1 11.4 26.9
v 1 11.4 26.8
v 1 11.4 26.5
v 1 11.4 26.4
v 1 11.5 26.8
v 1 11.5 26.7
v 1 11.5 26.6
v 1 11.5 26.5
v 1 11.8 26.8
v 1 11.8 26.7
v 1 11.8 26.6
v 1 11.8 26.5
v 1 11.9 26.9
v 1 11.9 26.8
v 1 11.9 26.5
v 1 11.9 26.4
v 1 12 26.8
v 1 12 26.7
v 1 12 26.6
v 1 12 26.5
v 1.1 8.9 23.7
v 1.1 8.9 23.5
v 1.1 10.1 23.7
v 1.1 10.1 23.5
v 1.1 10.4 26.8
v 1.1 10.4 26.5
v 1.1 10.8 26.8
v 1.1 10.8 26.5
v 1.1 11.3 26.7
v 1.1 11.3 26.6
v 1.1 11.4 26.7
v 1.1 11.4 26.6
v 1.1 11.9 26.7
v 1.1 11.9 26.6
v 1.1 12 26.7
v 1.1 12 26.6
v 1.2 11.4 26.7
v 1.2 11.4 26.6
v 1.2 11.9 26.7
v 1.2 11.9 26.6
v 0.9 11.4 26.9
v 0.9 11.9 26.9
v 1 11.4 26.9
v 1 11.9 26.9
v 0.8 10.4 26.8
v 0.8 10.8 26.8
v 0.9 11.3 26.8
v 0.9 11.4 26.8
v 0.9 11.9 26.8
v 0.9 12 26.8
v 1 11.3 26.8
v 1 11.4 26.8
v 1 11.9 26.8
v 1 12 26.8
v 1.1 10.4 26.8
v 1.1 10.8 26.8
v 0.7 11.4 26.7
v 0.7 11.9 26.7
v 0.8 11.3 26.7
v 0.8 11.4 26.7
v 0.8 11.5 26.7
v 0.8 11.8 26.7
v 0.8 11.9 26.7
v 0.8 12 26.7
v 0.9 10.8 26.7
v 0.9 11.3 26.7
v 0.9 11.5 26.7
v 0.9 11.8 26.7
v 0.9 12 26.7
v 1 10.8 26.7
v 1 11.3 26.7
v 1 11.5 26.7
v 1 11.8 26.7
v 1 12 26.7
v 1.1 11.3 26.7
v 1.1 11.4 26.7
v 1.1 11.5 26.7
v 1.1 11.8 26.7
v 1.1 11.9 26.7
v 1.1 12 26.7
v 1.2 11.4 26.7
v 1.2 11.9 26.7
v 0.9 11.4 26.6
v 0.9 11.5 26.6
v 0.9 11.8 26.6
v 0.9 11.9 26.6
v 1 11.4 26.6
v 1 11.5 26.6
v 1 11.8 26.6
v 1 11.9 26.6
v 0.9 11.5 26.5
v 0.9 11.8 26.5
v 1 11.5 26.5
v 1 11.8 26.5
v -0.2 10.4 25.5
v -0.2 10.8 25.5
v 0.1 10.4 25.5
v 0.1 10.8 25.5
v -0.4 11.4 25.4
v -0.4 12 25.4
v -0.3 11.3 25.4
v -0.3 11.4 25.4
v -0.3 11.9 25.4
v -0.2 11.4 25.4
v -0.2 11.9 25.4
v -0.1 10.8 25.4
v -0.1 11.3 25.4
v -0.1 11.4 25.4
v -0.1 11.9 25.4
v 0 10.8 25.4
v 0 11.3 25.4
v 0 11.4 25.4
v 0 11.9 25.4
v 0.1 11.4 25.4
v 0.1 11.9 25.4
v 0.2 11.3 25.4
v 0.2 11.4 25.4
v 0.2 11.9 25.4
v 0.3 11.4 25.4
v 0.3 12 25.4
v -0.3 9.7 24.7
v -0.3 10.1 24.7
v -0.2 9.6 24.7
v -0.2 9.7 24.7
v -0.2 10.1 24.7
v -0.2 10.2 24.7
v -0.1 8.8 24.7
v -0.1 9.6 24.7
v 0 8.8 24.7
v 0 9.6 24.7
v 0.1 9.6 24.7
v 0.1 9.7 24.7
v 0.1 10.1 24.7
v 0.1 10.2 24.7
v 0.2 9.7 24.7
v 0.2 10.1 24.7
v -0.2 9.7 24.6
v -0.2 10.1 24.6
v 0.1 9.7 24.6
v 0.1 10.1 24.6
v 0.8 8.9 23.8
v 0.8 10.1 23.8
v 1 8.9 23.8
v 1 10.1 23.8
v 0.7 8.9 23.7
v 0.7 10.1 23.7
v 0.8 8.7 23.7
v 0.8 8.9 23.7
v 0.8 10.1 23.7
v 0.8 10.3 23.7
v 1 8.7 23.7
v 1 8.9 23.7
v 1 10.1 23.7
v 1 10.3 23.7
v 1.1 8.9 23.7
v 1.1 10.1 23.7
v 0.9 11.5 26.8
v 0.9 11.8 26.8
v 1 11.5 26.8
v 1 11.8 26.8
v 0.9 11.4 26.7
v 0.9 11.5 26.7
v 0.9 11.8 26.7
v 0.9 11.9 26.7
v 1 11.4 26.7
v 1 11.5 26.7
v 1 11.8 26.7
v 1 11.9 26.7
v 0.7 11.4 26.6
v 0.7 11.9 26.6
v 0.8 11.3 26.6
v 0.8 11.4 26.6
v 0.8 11.5 26.6
v 0.8 11.8 26.6
v 0.8 11.9 26.6
v 0.8 12 26.6
v 0.9 10.8 26.6
v 0.9 11.3 26.6
v 0.9 11.5 26.6
v 0.9 11.8 26.6
v 0.9 12 26.6
v 1 10.8 26.6
v 1 11.3 26.6
v 1 11.5 26.6
v 1 11.8 26.6
v 1 12 26.6
v 1.1 11.3 26.6
v 1.1 11.4 26.6
v 1.1 11.5 26.6
v 1.1 11.8 26.6
v 1.1 11.9 26.6
v 1.1 12 26.6
v 1.2 11.4 26.6
v 1.2 11.9 26.6
v 0.8 10.4 26.5
v 0.8 10.8 26.5
v 0.9 11.3 26.5
v 0.9 11.4 26.5
v 0.9 11.9 26.5
v 0.9 12 26.5
v 1 11.3 26.5
v 1 11.4 26.5
v 1 11.9 26.5
v 1 12 26.5
v 1.1 10.4 26.5
v 1.1 10.8 26.5
v 0.9 11.4 26.4
v 0.9 11.9 26.4
v 1 11.4 26.4
v 1 11.9 26.4
v -0.4 11.4 25.3
v -0.4 12 25.3
v -0.3 11.3 25.3
v -0.3 11.4 25.3
v -0.3 11.9 25.3
v -0.2 11.4 25.3
v -0.2 11.9 25.3
v -0.1 10.8 25.3
v -0.1 11.3 25.3
v -0.1 11.4 25.3
v -0.1 11.9 25.3
v 0 10.8 25.3
v 0 11.3 25.3
v 0 11.4 25.3
v 0 11.9 25.3
v 0.1 11.4 25.3
v 0.1 11.9 25.3
v 0.2 11.3 25.3
v 0.2 11.4 25.3
v 0.2 11.9 25.3
v 0.3 11.4 25.3
v 0.3 12 25.3
v -0.2 10.4 25.2
v -0.2 10.8 25.2
v 0.1 10.4 25.2
v 0.1 10.8 25.2
v -0.3 9.7 24.6
v -0.3 10.1 24.6
v -0.2 9.6 24.6
v -0.2 9.7 24.6
v -0.2 10.1 24.6
v -0.2 10.2 24.6
v -0.1 8.8 24.6
v -0.1 9.6 24.6
v 0 8.8 24.6
v 0 9.6 24.6
v 0.1 9.6 24.6
v 0.1 9.7 24.6
v 0.1 10.1 24.6
v 0.1 10.2 24.6
v 0.2 9.7 24.6
v 0.2 10.1 24.6
v -0.2 9.7 24.5
v -0.2 10.1 24.5
v 0.1 9.7 24.5
v 0.1 10.1 24.5
v 0.7 8.9 23.5
v 0.7 10.1 23.5
v 0.8 8.7 23.5
v 0.8 8.9 23.5
v 0.8 10.1 23.5
v 0.8 10.3 23.5
v 1 8.7 23.5
v 1 8.9 23.5
v 1 10.1 23.5
v 1 10.3 23.5
v 1.1 8.9 23.5
v 1.1 10.1 23.5
v 0.8 8.9 23.4
v 0.8 10.1 23.4
v 1 8.9 23.4
v 1 10.1 23.4
v 0.8 8.7 23.7
v 1 8.7 23.7
v 0.8 8.7 23.5
v 1 8.7 23.5
v -0.1 8.8 24.7
v 0 8.8 24.7
v -0.1 8.8 24.6
v 0 8.8 24.6
v 0.8 8.9 23.8
v 1 8.9 23.8
v 0.7 8.9 23.7
v 0.8 8.9 23.7
v 1 8.9 23.7
v 1.1 8.9 23.7
v 0.7 8.9 23.5
v 0.8 8.9 23.5
v 1 8.9 23.5
v 1.1 8.9 23.5
v 0.8 8.9 23.4
v 1 8.9 23.4
v -0.2 9.6 24.7
v -0.1 9.6 24.7
v 0 9.6 24.7
v 0.1 9.6 24.7
v -0.2 9.6 24.6
v -0.1 9.6 24.6
v 0 9.6 24.6
v 0.1 9.6 24.6
v -0.3 9.7 24.7
v -0.2 9.7 24.7
v 0.1 9.7 24.7
v 0.2 9.7 24.7
v -0.3 9.7 24.6
v -0.2 9.7 24.6
v 0.1 9.7 24.6
v 0.2 9.7 24.6
v -0.2 9.7 24.5
v 0.1 9.7 24.5
v -0.2 10.1 24.7
v 0.1 10.1 24.7
v -0.2 10.1 24.6
v 0.1 10.1 24.6
v 0.8 10.4 26.8
v 1.1 10.4 26.8
v 0.8 10.4 26.5
v 1.1 10.4 26.5
v -0.2 10.4 25.5
v 0.1 10.4 25.5
v -0.2 10.4 25.2
v 0.1 10.4 25.2
v 0.9 11.3 26.8
v 1 11.3 26.8
v 0.8 11.3 26.7
v 0.9 11.3 26.7
v 1 11.3 26.7
v 1.1 11.3 26.7
v 0.8 11.3 26.6
v 0.9 11.3 26.6
v 1 11.3 26.6
v 1.1 11.3 26.6
v 0.9 11.3 26.5
v 1 11.3 26.5
v -0.3 11.3 25.4
v -0.1 11.3 25.4
v 0 11.3 25.4
v 0.2 11.3 25.4
v -0.3 11.3 25.3
v -0.1 11.3 25.3
v 0 11.3 25.3
v 0.2 11.3 25.3
v 0.9 11.4 26.9
v 1 11.4 26.9
v 0.9 11.4 26.8
v 1 11.4 26.8
v 0.7 11.4 26.7
v 0.8 11.4 26.7
v 1.1 11.4 26.7
v 1.2 11.4 26.7
v 0.7 11.4 26.6
v 0.8 11.4 26.6
v 1.1 11.4 26.6
v 1.2 11.4 26.6
v 0.9 11.4 26.5
v 1 11.4 26.5
v 0.9 11.4 26.4
v 1 11.4 26.4
v -0.4 11.4 25.4
v -0.3 11.4 25.4
v 0.2 11.4 25.4
v 0.3 11.4 25.4
v -0.4 11.4 25.3
v -0.3 11.4 25.3
v 0.2 11.4 25.3
v 0.3 11.4 25.3
v 0.9 11.8 26.8
v 1 11.8 26.8
v 0.8 11.8 26.7
v 0.9 11.8 26.7
v 1 11.8 26.7
v 1.1 11.8 26.7
v 0.8 11.8 26.6
v 0.9 11.8 26.6
v 1 11.8 26.6
v 1.1 11.8 26.6
v 0.9 11.8 26.5
v 1 11.8 26.5
v 0.9 11.9 26.7
v 1 11.9 26.7
v 0.9 11.9 26.6
v 1 11.9 26.6
v -0.3 11.9 25.4
v -0.2 11.9 25.4
v -0.1 11.9 25.4
v 0 11.9 25.4
v 0.1 11.9 25.4
v 0.2 11.9 25.4
v -0.3 11.9 25.3
v -0.2 11.9 25.3
v -0.1 11.9 25.3
v 0 11.9 25.3
v 0.1 11.9 25.3
v 0.2 11.9 25.3
v -0.2 9.7 24.7
v 0.1 9.7 24.7
v -0.2 9.7 24.6
v 0.1 9.7 24.6
v -0.3 10.1 24.7
v -0.2 10.1 24.7
v 0.1 10.1 24.7
v 0.2 10.1 24.7
v -0.3 10.1 24.6
v -0.2 10.1 24.6
v 0.1 10.1 24.6
v 0.2 10.1 24.6
v -0.2 10.1 24.5
v 0.1 10.1 24.5
v 0.8 10.1 23.8
v 1 10.1 23.8
v 0.7 10.1 23.7
v 0.8 10.1 23.7
v 1 10.1 23.7
v 1.1 10.1 23.7
v 0.7 10.1 23.5
v 0.8 10.1 23.5
v 1 10.1 23.5
v 1.1 10.1 23.5
v 0.8 10.1 23.4
v 1 10.1 23.4
v -0.2 10.2 24.7
v 0.1 10.2 24.7
v -0.2 10.2 24.6
v 0.1 10.2 24.6
v 0.8 10.3 23.7
v 1 10.3 23.7
v 0.8 10.3 23.5
v 1 10.3 23.5
v 0.8 10.8 26.8
v 1.1 10.8 26.8
v 0.9 10.8 26.7
v 1 10.8 26.7
v 0.9 10.8 26.6
v 1 10.8 26.6
v 0.8 10.8 26.5
v 1.1 10.8 26.5
v -0.2 10.8 25.5
v 0.1 10.8 25.5
v -0.1 10.8 25.4
v 0 10.8 25.4
v -0.1 10.8 25.3
v 0 10.8 25.3
v -0.2 10.8 25.2
v 0.1 10.8 25.2
v 0.9 11.4 26.7
v 1 11.4 26.7
v 0.9 11.4 26.6
v 1 11.4 26.6
v -0.3 11.4 25.4
v -0.2 11.4 25.4
v -0.1 11.4 25.4
v 0 11.4 25.4
v 0.1 11.4 25.4
v 0.2 11.4 25.4
v -0.3 11.4 25.3
v -0.2 11.4 25.3
v -0.1 11.4 25.3
v 0 11.4 25.3
v 0.1 11.4 25.3
v 0.2 11.4 25.3
v 0.9 11.5 26.8
v 1 11.5 26.8
v 0.8 11.5 26.7
v 0.9 11.5 26.7
v 1 11.5 26.7
v 1.1 11.5 26.7
v 0.8 11.5 26.6
v 0.9 11.5 26.6
v 1 11.5 26.6
v 1.1 11.5 26.6
v 0.9 11.5 26.5
v 1 11.5 26.5
v 0.9 11.9 26.9
v 1 11.9 26.9
v 0.9 11.9 26.8
v 1 11.9 26.8
v 0.7 11.9 26.7
v 0.8 11.9 26.7
v 1.1 11.9 26.7
v 1.2 11.9 26.7
v 0.7 11.9 26.6
v 0.8 11.9 26.6
v 1.1 11.9 26.6
v 1.2 11.9 26.6
v 0.9 11.9 26.5
v 1 11.9 26.5
v 0.9 11.9 26.4
v 1 11.9 26.4
v 0.9 12 26.8
v 1 12 26.8
v 0.8 12 26.7
v 0.9 12 26.7
v 1 12 26.7
v 1.1 12 26.7
v 0.8 12 26.6
v 0.9 12 26.6
v 1 12 26.6
v 1.1 12 26.6
v 0.9 12 26.5
v 1 12 26.5
v -0.4 12 25.4
v 0.3 12 25.4
v -0.4 12 25.3
v 0.3 12 25.3

# faces
f 3/4/1 2/4/1 1/4/1
f 4/4/1 2/4/1 3/4/1
f 7/2/1 6/2/1 5/2/1
f 8/2/1 6/2/1 7/2/1
f 11/4/1 10/4/1 9/4/1
f 12/4/1 10/4/1 11/4/1
f 15/2/1 14/2/1 13/2/1
f 16/2/1 14/2/1 15/2/1
f 19/2/1 17/2/1 16/2/1
f 20/2/1 17/2/1 19/2/1
f 21/2/1 19/2/1 18/2/1
f 22/2/1 19/2/1 21/2/1
f 25/1/1 24/1/1 23/1/1
f 26/1/1 24/1/1 25/1/1
f 29/4/1 28/4/1 27/4/1
f 30/4/1 28/4/1 29/4/1
f 33/2/1 32/2/1 31/2/1
f 34/2/1 32/2/1 33/2/1
f 37/4/1 36/4/1 35/4/1
f 38/4/1 36/4/1 37/4/1
f 41/4/1 40/4/1 39/4/1
f 42/4/1 40/4/1 41/4/1
f 45/2/1 44/2/1 43/2/1
f 46/2/1 44/2/1 45/2/1
f 49/4/1 48/4/1 47/4/1
f 50/4/1 48/4/1 49/4/1
f 53/3/1 52/3/1 51/3/1
f 54/3/1 52/3/1 53/3/1
f 57/5/1 56/5/1 55/5/1
f 58/5/1 56/5/1 57/5/1
f 62/3/1 60/3/1 59/3/1
f 63/3/1 60/3/1 62/3/1
f 65/3/1 62/3/1 61/3/1
f 66/3/1 62/3/1 65/3/1
f 67/3/1 64/3/1 63/3/1
f 68/3/1 64/3/1 67/3/1
f 69/3/1 67/3/1 66/3/1
f 70/3/1 67/3/1 69/3/1
f 73/4/1 72/4/1 71/4/1
f 74/4/1 72/4/1 73/4/1
f 77/5/1 76/5/1 75/5/1
f 78/5/1 76/5/1 77/5/1
f 81/5/1 80/5/1 79/5/1
f 82/5/1 80/5/1 81/5/1
f 86/5/1 84/5/1 83/5/1
f 87/5/1 84/5/1 86/5/1
f 90/5/1 86/5/1 85/5/1
f 91/5/1 88/5/1 87/5/1
f 93/5/1 90/5/1 89/5/1
f 93/5/1 86/5/1 90/5/1
f 94/5/1 86/5/1 93/5/1
f 95/5/1 92/5/1 91/5/1
f 95/5/1 91/5/1 87/5/1
f 96/5/1 92/5/1 95/5/1
f 97/5/1 93/5/1 89/5/1
f 100/5/1 92/5/1 96/5/1
f 101/5/1 98/5/1 97/5/1
f 101/5/1 97/5/1 89/5/1
f 102/5/1 98/5/1 101/5/1
f 103/5/1 100/5/1 99/5/1
f 103/5/1 92/5/1 100/5/1
f 104/5/1 92/5/1 103/5/1
f 105/5/1 98/5/1 102/5/1
f 106/5/1 98/5/1 105/5/1
f 107/5/1 103/5/1 99/5/1
f 108/5/1 103/5/1 107/5/1
f 111/5/1 110/5/1 109/5/1
f 112/5/1 110/5/1 111/5/1
f 115/5/1 114/5/1 113/5/1
f 116/5/1 114/5/1 115/5/1
f 119/5/1 118/5/1 117/5/1
f 120/5/1 118/5/1 119/5/1
f 121/4/2 122/4/2 123/4/2
f 123/4/2 122/4/2 124/4/2
f 125/2/2 126/2/2 127/2/2
f 127/2/2 126/2/2 128/2/2
f 129/4/2 130/4/2 131/4/2
f 131/4/2 130/4/2 132/4/2
f 133/2/2 134/2/2 135/2/2
f 135/2/2 134/2/2 136/2/2
f 137/4/2 138/4/2 139/4/2
f 139/4/2 138/4/2 140/4/2
f 141/2/2 142/2/2 143/2/2
f 143/2/2 142/2/2 144/2/2
f 144/2/2 145/2/2 147/2/2
f 147/2/2 145/2/2 148/2/2
f 146/2/2 147/2/2 149/2/2
f 149/2/2 147/2/2 150/2/2
f 151/1/2 152/1/2 153/1/2
f 153/1/2 152/1/2 154/1/2
f 155/4/2 156/4/2 157/4/2
f 157/4/2 156/4/2 158/4/2
f 159/2/2 160/2/2 161/2/2
f 161/2/2 160/2/2 162/2/2
f 163/4/2 164/4/2 165/4/2
f 165/4/2 164/4/2 166/4/2
f 167/4/2 168/4/2 169/4/2
f 169/4/2 168/4/2 170/4/2
f 171/5/2 172/5/2 173/5/2
f 173/5/2 172/5/2 174/5/2
f 175/5/2 176/5/2 177/5/2
f 177/5/2 176/5/2 178/5/2
f 179/5/2 180/5/2 181/5/2
f 181/5/2 180/5/2 182/5/2
f 183/3/2 184/3/2 186/3/2
f 186/3/2 184/3/2 187/3/2
f 185/3/2 186/3/2 189/3/2
f 189/3/2 186/3/2 190/3/2
f 187/3/2 188/3/2 191/3/2
f 191/3/2 188/3/2 192/3/2
f 190/3/2 191/3/2 193/3/2
f 193/3/2 191/3/2 194/3/2
f 195/5/2 196/5/2 198/5/2
f 198/5/2 196/5/2 199/5/2
f 197/5/2 198/5/2 202/5/2
f 199/5/2 200/5/2 203/5/2
f 201/5/2 202/5/2 205/5/2
f 202/5/2 198/5/2 205/5/2
f 205/5/2 198/5/2 206/5/2
f 203/5/2 204/5/2 207/5/2
f 199/5/2 203/5/2 207/5/2
f 207/5/2 204/5/2 208/5/2
f 201/5/2 205/5/2 209/5/2
f 208/5/2 204/5/2 212/5/2
f 209/5/2 210/5/2 213/5/2
f 201/5/2 209/5/2 213/5/2
f 213/5/2 210/5/2 214/5/2
f 211/5/2 212/5/2 215/5/2
f 212/5/2 204/5/2 215/5/2
f 215/5/2 204/5/2 216/5/2
f 214/5/2 210/5/2 217/5/2
f 217/5/2 210/5/2 218/5/2
f 211/5/2 215/5/2 219/5/2
f 219/5/2 215/5/2 220/5/2
f 221/3/2 222/3/2 223/3/2
f 223/3/2 222/3/2 224/3/2
f 225/4/2 226/4/2 227/4/2
f 227/4/2 226/4/2 228/4/2
f 229/5/2 230/5/2 231/5/2
f 231/5/2 230/5/2 232/5/2
f 233/5/2 234/5/2 235/5/2
f 235/5/2 234/5/2 236/5/2
f 237/5/2 238/5/2 239/5/2
f 239/5/2 238/5/2 240/5/2
f 243/5/3 242/5/3 241/5/3
f 244/5/3 242/5/3 243/5/3
f 251/5/3 248/5/3 247/5/3
f 252/5/3 248/5/3 251/5/3
f 253/5/3 250/5/3 249/5/3
f 254/5/3 250/5/3 253/5/3
f 255/4/3 246/4/3 245/4/3
f 256/4/3 246/4/3 255/4/3
f 260/5/3 258/5/3 257/5/3
f 261/5/3 258/5/3 260/5/3
f 262/5/3 258/5/3 261/5/3
f 263/5/3 258/5/3 262/5/3
f 266/5/3 260/5/3 259/5/3
f 266/5/3 261/5/3 260/5/3
f 267/5/3 261/5/3 266/5/3
f 268/5/3 263/5/3 262/5/3
f 268/5/3 264/5/3 263/5/3
f 269/5/3 264/5/3 268/5/3
f 270/5/3 266/5/3 265/5/3
f 271/5/3 266/5/3 270/5/3
f 275/5/3 272/5/3 271/5/3
f 276/5/3 272/5/3 275/5/3
f 277/5/3 272/5/3 276/5/3
f 278/5/3 274/5/3 273/5/3
f 279/5/3 274/5/3 278/5/3
f 280/5/3 274/5/3 279/5/3
f 281/5/3 277/5/3 276/5/3
f 281/5/3 279/5/3 278/5/3
f 281/5/3 278/5/3 277/5/3
f 282/5/3 279/5/3 281/5/3
f 287/5/3 284/5/3 283/5/3
f 288/5/3 284/5/3 287/5/3
f 289/5/3 286/5/3 285/5/3
f 290/5/3 286/5/3 289/5/3
f 293/5/3 292/5/3 291/5/3
f 294/5/3 292/5/3 293/5/3
f 297/1/3 296/1/3 295/1/3
f 298/1/3 296/1/3 297/1/3
f 302/4/3 300/4/3 299/4/3
f 303/4/3 300/4/3 302/4/3
f 304/4/3 302/4/3 301/4/3
f 305/4/3 300/4/3 303/4/3
f 307/4/3 304/4/3 301/4/3
f 307/4/3 305/4/3 304/4/3
f 308/4/3 305/4/3 307/4/3
f 309/4/3 300/4/3 305/4/3
f 309/4/3 305/4/3 308/4/3
f 310/4/3 308/4/3 307/4/3
f 310/4/3 307/4/3 306/4/3
f 311/4/3 308/4/3 310/4/3
f 312/4/3 308/4/3 311/4/3
f 313/4/3 300/4/3 309/4/3
f 314/4/3 312/4/3 311/4/3
f 314/4/3 313/4/3 312/4/3
f 315/4/3 300/4/3 313/4/3
f 315/4/3 313/4/3 314/4/3
f 316/4/3 314/4/3 311/4/3
f 317/4/3 314/4/3 316/4/3
f 318/4/3 300/4/3 315/4/3
f 319/4/3 318/4/3 317/4/3
f 320/4/3 300/4/3 318/4/3
f 320/4/3 318/4/3 319/4/3
f 324/2/3 322/2/3 321/2/3
f 325/2/3 322/2/3 324/2/3
f 328/2/3 324/2/3 323/2/3
f 329/2/3 328/2/3 327/2/3
f 330/2/3 324/2/3 328/2/3
f 330/2/3 328/2/3 329/2/3
f 331/2/3 324/2/3 330/2/3
f 332/2/3 324/2/3 331/2/3
f 333/2/3 326/2/3 325/2/3
f 334/2/3 326/2/3 333/2/3
f 335/2/3 333/2/3 332/2/3
f 336/2/3 333/2/3 335/2/3
f 339/2/3 338/2/3 337/2/3
f 340/2/3 338/2/3 339/2/3
f 343/3/3 342/3/3 341/3/3
f 344/3/3 342/3/3 343/3/3
f 348/3/3 346/3/3 345/3/3
f 349/3/3 346/3/3 348/3/3
f 351/3/3 348/3/3 347/3/3
f 352/3/3 348/3/3 351/3/3
f 353/3/3 350/3/3 349/3/3
f 354/3/3 350/3/3 353/3/3
f 355/3/3 353/3/3 352/3/3
f 356/3/3 353/3/3 355/3/3
f 357/5/4 358/5/4 359/5/4
f 359/5/4 358/5/4 360/5/4
f 361/5/4 362/5/4 365/5/4
f 365/5/4 362/5/4 366/5/4
f 363/5/4 364/5/4 367/5/4
f 367/5/4 364/5/4 368/5/4
f 369/5/4 370/5/4 372/5/4
f 372/5/4 370/5/4 373/5/4
f 373/5/4 370/5/4 374/5/4
f 374/5/4 370/5/4 375/5/4
f 371/5/4 372/5/4 378/5/4
f 372/5/4 373/5/4 378/5/4
f 378/5/4 373/5/4 379/5/4
f 374/5/4 375/5/4 380/5/4
f 375/5/4 376/5/4 380/5/4
f 380/5/4 376/5/4 381/5/4
f 377/5/4 378/5/4 382/5/4
f 382/5/4 378/5/4 383/5/4
f 383/5/4 384/5/4 387/5/4
f 387/5/4 384/5/4 388/5/4
f 388/5/4 384/5/4 389/5/4
f 385/5/4 386/5/4 390/5/4
f 390/5/4 386/5/4 391/5/4
f 391/5/4 386/5/4 392/5/4
f 388/5/4 389/5/4 393/5/4
f 390/5/4 391/5/4 393/5/4
f 389/5/4 390/5/4 393/5/4
f 393/5/4 391/5/4 394/5/4
f 397/5/4 398/5/4 401/5/4
f 401/5/4 398/5/4 402/5/4
f 399/5/4 400/5/4 403/5/4
f 403/5/4 400/5/4 404/5/4
f 395/4/4 396/4/4 405/4/4
f 405/4/4 396/4/4 406/4/4
f 407/5/4 408/5/4 409/5/4
f 409/5/4 408/5/4 410/5/4
f 411/4/4 412/4/4 414/4/4
f 414/4/4 412/4/4 415/4/4
f 413/4/4 414/4/4 416/4/4
f 415/4/4 412/4/4 417/4/4
f 413/4/4 416/4/4 419/4/4
f 416/4/4 417/4/4 419/4/4
f 419/4/4 417/4/4 420/4/4
f 417/4/4 412/4/4 421/4/4
f 420/4/4 417/4/4 421/4/4
f 419/4/4 420/4/4 422/4/4
f 418/4/4 419/4/4 422/4/4
f 422/4/4 420/4/4 423/4/4
f 423/4/4 420/4/4 424/4/4
f 421/4/4 412/4/4 425/4/4
f 423/4/4 424/4/4 426/4/4
f 424/4/4 425/4/4 426/4/4
f 425/4/4 412/4/4 427/4/4
f 426/4/4 425/4/4 427/4/4
f 423/4/4 426/4/4 428/4/4
f 428/4/4 426/4/4 429/4/4
f 427/4/4 412/4/4 430/4/4
f 429/4/4 430/4/4 431/4/4
f 430/4/4 412/4/4 432/4/4
f 431/4/4 430/4/4 432/4/4
f 433/1/4 434/1/4 435/1/4
f 435/1/4 434/1/4 436/1/4
f 437/2/4 438/2/4 440/2/4
f 440/2/4 438/2/4 441/2/4
f 439/2/4 440/2/4 444/2/4
f 443/2/4 444/2/4 445/2/4
f 444/2/4 440/2/4 446/2/4
f 445/2/4 444/2/4 446/2/4
f 446/2/4 440/2/4 447/2/4
f 447/2/4 440/2/4 448/2/4
f 441/2/4 442/2/4 449/2/4
f 449/2/4 442/2/4 450/2/4
f 448/2/4 449/2/4 451/2/4
f 451/2/4 449/2/4 452/2/4
f 453/2/4 454/2/4 455/2/4
f 455/2/4 454/2/4 456/2/4
f 457/3/4 458/3/4 460/3/4
f 460/3/4 458/3/4 461/3/4
f 459/3/4 460/3/4 463/3/4
f 463/3/4 460/3/4 464/3/4
f 461/3/4 462/3/4 465/3/4
f 465/3/4 462/3/4 466/3/4
f 464/3/4 465/3/4 467/3/4
f 467/3/4 465/3/4 468/3/4
f 469/3/4 470/3/4 471/3/4
f 471/3/4 470/3/4 472/3/4
f 475/3/5 474/3/5 473/3/5
f 476/3/5 474/3/5 475/3/5
f 479/2/5 478/2/5 477/2/5
f 480/2/5 478/2/5 479/2/5
f 484/3/5 482/3/5 481/3/5
f 485/3/5 482/3/5 484/3/5
f 487/3/5 484/3/5 483/3/5
f 488/3/5 484/3/5 487/3/5
f 489/3/5 486/3/5 485/3/5
f 490/3/5 486/3/5 489/3/5
f 491/3/5 489/3/5 488/3/5
f 492/3/5 489/3/5 491/3/5
f 497/2/5 494/2/5 493/2/5
f 498/2/5 494/2/5 497/2/5
f 499/2/5 496/2/5 495/2/5
f 500/2/5 496/2/5 499/2/5
f 505/2/5 502/2/5 501/2/5
f 506/2/5 502/2/5 505/2/5
f 507/2/5 504/2/5 503/2/5
f 508/2/5 504/2/5 507/2/5
f 509/2/5 507/2/5 506/2/5
f 510/2/5 507/2/5 509/2/5
f 513/2/5 512/2/5 511/2/5
f 514/2/5 512/2/5 513/2/5
f 517/4/5 516/4/5 515/4/5
f 518/4/5 516/4/5 517/4/5
f 521/1/5 520/1/5 519/1/5
f 522/1/5 520/1/5 521/1/5
f 526/5/5 524/5/5 523/5/5
f 527/5/5 524/5/5 526/5/5
f 529/5/5 526/5/5 525/5/5
f 530/5/5 526/5/5 529/5/5
f 531/5/5 528/5/5 527/5/5
f 532/5/5 528/5/5 531/5/5
f 533/5/5 531/5/5 530/5/5
f 534/5/5 531/5/5 533/5/5
f 539/4/5 536/4/5 535/4/5
f 540/4/5 536/4/5 539/4/5
f 541/4/5 538/4/5 537/4/5
f 542/4/5 538/4/5 541/4/5
f 545/5/5 544/5/5 543/5/5
f 546/5/5 544/5/5 545/5/5
f 551/5/5 548/5/5 547/5/5
f 552/5/5 548/5/5 551/5/5
f 553/5/5 550/5/5 549/5/5
f 554/5/5 550/5/5 553/5/5
f 557/5/5 556/5/5 555/5/5
f 558/5/5 556/5/5 557/5/5
f 563/4/5 560/4/5 559/4/5
f 564/4/5 560/4/5 563/4/5
f 565/4/5 562/4/5 561/4/5
f 566/4/5 562/4/5 565/4/5
f 570/5/5 568/5/5 567/5/5
f 571/5/5 568/5/5 570/5/5
f 573/5/5 570/5/5 569/5/5
f 574/5/5 570/5/5 573/5/5
f 575/5/5 572/5/5 571/5/5
f 576/5/5 572/5/5 575/5/5
f 577/5/5 575/5/5 574/5/5
f 578/5/5 575/5/5 577/5/5
f 581/5/5 580/5/5 579/5/5
f 582/5/5 580/5/5 581/5/5
f 589/4/5 584/4/5 583/4/5
f 590/4/5 584/4/5 589/4/5
f 591/4/5 586/4/5 585/4/5
f 592/4/5 586/4/5 591/4/5
f 593/4/5 588/4/5 587/4/5
f 594/4/5 588/4/5 593/4/5
f 595/2/6 596/2/6 597/2/6
f 597/2/6 596/2/6 598/2/6
f 599/2/6 600/2/6 603/2/6
f 603/2/6 600/2/6 604/2/6
f 601/2/6 602/2/6 605/2/6
f 605/2/6 602/2/6 606/2/6
f 604/2/6 605/2/6 607/2/6
f 607/2/6 605/2/6 608/2/6
f 609/3/6 610/3/6 612/3/6
f 612/3/6 610/3/6 613/3/6
f 611/3/6 612/3/6 615/3/6
f 615/3/6 612/3/6 616/3/6
f 613/3/6 614/3/6 617/3/6
f 617/3/6 614/3/6 618/3/6
f 616/3/6 617/3/6 619/3/6
f 619/3/6 617/3/6 620/3/6
f 621/2/6 622/2/6 623/2/6
f 623/2/6 622/2/6 624/2/6
f 625/3/6 626/3/6 627/3/6
f 627/3/6 626/3/6 628/3/6
f 629/4/6 630/4/6 631/4/6
f 631/4/6 630/4/6 632/4/6
f 629/4/6 631/4/6 633/4/6
f 632/4/6 630/4/6 634/4/6
f 629/4/6 633/4/6 635/4/6
f 633/4/6 634/4/6 635/4/6
f 634/4/6 630/4/6 636/4/6
f 635/4/6 634/4/6 636/4/6
f 637/1/6 638/1/6 639/1/6
f 639/1/6 638/1/6 640/1/6
f 637/1/6 639/1/6 641/1/6
f 640/1/6 638/1/6 642/1/6
f 637/1/6 641/1/6 643/1/6
f 641/1/6 642/1/6 643/1/6
f 642/1/6 638/1/6 644/1/6
f 643/1/6 642/1/6 644/1/6
f 645/5/6 646/5/6 647/5/6
f 647/5/6 646/5/6 648/5/6
f 649/4/6 650/4/6 655/4/6
f 655/4/6 650/4/6 656/4/6
f 651/4/6 652/4/6 657/4/6
f 657/4/6 652/4/6 658/4/6
f 653/4/6 654/4/6 659/4/6
f 659/4/6 654/4/6 660/4/6
f 661/5/6 662/5/6 664/5/6
f 664/5/6 662/5/6 665/5/6
f 663/5/6 664/5/6 667/5/6
f 667/5/6 664/5/6 668/5/6
f 665/5/6 666/5/6 669/5/6
f 669/5/6 666/5/6 670/5/6
f 668/5/6 669/5/6 671/5/6
f 671/5/6 669/5/6 672/5/6
f 673/5/6 674/5/6 675/5/6
f 675/5/6 674/5/6 676/5/6
f 677/5/6 678/5/6 681/5/6
f 681/5/6 678/5/6 682/5/6
f 679/5/6 680/5/6 683/5/6
f 683/5/6 680/5/6 684/5/6
f 685/5/6 686/5/6 687/5/6
f 687/5/6 686/5/6 688/5/6
f 689/5/6 690/5/6 692/5/6
f 692/5/6 690/5/6 693/5/6
f 691/5/6 692/5/6 695/5/6
f 693/5/6 694/5/6 695/5/6
f 692/5/6 693/5/6 695/5/6
f 695/5/6 694/5/6 696/5/6
f 696/5/6 694/5/6 697/5/6
f 697/5/6 694/5/6 698/5/6
f 696/5/6 697/5/6 699/5/6
f 699/5/6 697/5/6 700/5/6
f 701/4/6 702/4/6 703/4/6
f 703/4/6 702/4/6 704/4/6
