# MagicaVoxel @ Ephtracy

# group
o 

# material
mtllib Caixa distracao-3.mtl
usemtl palette

# normals
vn -1 0 0
vn 1 0 0
vn 0 0 1
vn 0 0 -1
vn 0 -1 0
vn 0 1 0

# texcoords
vt 0.0332031 0.5
vt 0.830078 0.5
vt 0.994141 0.5

# verts
v -4.3 3.8 26.7
v -4.3 3.8 26.6
v -4.3 4.1 26.8
v -4.3 4.1 26.7
v -4.3 4.1 26.6
v -4.3 4.2 26.8
v -4.3 4.2 26.7
v -4.1 3.8 26.8
v -4.1 3.8 26.7
v -4.1 4.1 26.8
v -4.1 4.1 26.7
v -4 3.8 26.9
v -4 3.8 26.8
v -4 4.1 26.9
v -4 4.1 26.8
v -4 4.1 26.8
v -4 4.1 26.7
v -4 4.2 26.8
v -4 4.2 26.7
v -3.9 3.8 26.7
v -3.9 3.8 26.6
v -3.9 4.1 26.7
v -3.9 4.1 26.6
v -3.8 3.8 26.9
v -3.8 3.8 26.7
v -3.8 4.1 26.9
v -3.8 4.1 26.7
v -4 3.8 26.9
v -4 4.1 26.9
v -3.8 3.8 26.9
v -3.8 4.1 26.9
v -4.3 4.1 26.8
v -4.3 4.2 26.8
v -4.1 3.8 26.8
v -4.1 4.1 26.8
v -4.1 4.2 26.8
v -4 3.8 26.8
v -4 4.1 26.8
v -4 4.2 26.8
v -4.3 3.8 26.7
v -4.3 4.1 26.7
v -4.1 3.8 26.7
v -4.1 4.1 26.7
v -4.3 4.1 26.7
v -4.3 4.2 26.7
v -4.1 4.1 26.7
v -4.1 4.2 26.7
v -4 4.1 26.7
v -4 4.2 26.7
v -3.9 3.8 26.7
v -3.9 4.1 26.7
v -3.8 3.8 26.7
v -3.8 4.1 26.7
v -4.3 3.8 26.6
v -4.3 4.1 26.6
v -4.1 3.8 26.6
v -4.1 4.1 26.6
v -4 3.8 26.6
v -4 4.1 26.6
v -3.9 3.8 26.6
v -3.9 4.1 26.6
v -4 3.8 26.9
v -3.8 3.8 26.9
v -4.1 3.8 26.8
v -4 3.8 26.8
v -4.3 3.8 26.7
v -4.1 3.8 26.7
v -3.9 3.8 26.7
v -3.8 3.8 26.7
v -4.3 3.8 26.6
v -4.1 3.8 26.6
v -4 3.8 26.6
v -3.9 3.8 26.6
v -4.3 4.1 26.8
v -4.1 4.1 26.8
v -4.3 4.1 26.7
v -4.1 4.1 26.7
v -4 4.1 26.9
v -3.8 4.1 26.9
v -4 4.1 26.8
v -4.3 4.1 26.7
v -4.1 4.1 26.7
v -4 4.1 26.7
v -3.9 4.1 26.7
v -3.8 4.1 26.7
v -4.3 4.1 26.6
v -4.1 4.1 26.6
v -4 4.1 26.6
v -3.9 4.1 26.6
v -4.3 4.2 26.8
v -4.1 4.2 26.8
v -4 4.2 26.8
v -4.3 4.2 26.7
v -4.1 4.2 26.7
v -4 4.2 26.7

# faces
f 4/1/1 2/1/1 1/1/1
f 5/1/1 2/1/1 4/1/1
f 6/1/1 4/1/1 3/1/1
f 7/1/1 4/1/1 6/1/1
f 10/3/1 9/3/1 8/3/1
f 11/3/1 9/3/1 10/3/1
f 14/2/1 13/2/1 12/2/1
f 15/2/1 13/2/1 14/2/1
f 16/3/2 17/3/2 18/3/2
f 18/3/2 17/3/2 19/3/2
f 20/2/2 21/2/2 22/2/2
f 22/2/2 21/2/2 23/2/2
f 24/2/2 25/2/2 26/2/2
f 26/2/2 25/2/2 27/2/2
f 30/2/3 29/2/3 28/2/3
f 31/2/3 29/2/3 30/2/3
f 35/1/3 33/1/3 32/1/3
f 36/1/3 33/1/3 35/1/3
f 37/3/3 35/3/3 34/3/3
f 37/3/3 36/3/3 35/3/3
f 38/3/3 36/3/3 37/3/3
f 39/3/3 36/3/3 38/3/3
f 42/1/3 41/1/3 40/1/3
f 43/1/3 41/1/3 42/1/3
f 44/1/4 45/1/4 46/1/4
f 46/1/4 45/1/4 47/1/4
f 46/3/4 47/3/4 48/3/4
f 48/3/4 47/3/4 49/3/4
f 50/2/4 51/2/4 52/2/4
f 52/2/4 51/2/4 53/2/4
f 54/1/4 55/1/4 56/1/4
f 56/1/4 55/1/4 57/1/4
f 56/3/4 57/3/4 58/3/4
f 58/3/4 57/3/4 59/3/4
f 58/2/4 59/2/4 60/2/4
f 60/2/4 59/2/4 61/2/4
f 65/2/5 63/2/5 62/2/5
f 67/3/5 65/3/5 64/3/5
f 68/2/5 63/2/5 65/2/5
f 69/2/5 63/2/5 68/2/5
f 70/1/5 67/1/5 66/1/5
f 71/3/5 65/3/5 67/3/5
f 71/1/5 67/1/5 70/1/5
f 72/2/5 68/2/5 65/2/5
f 72/3/5 65/3/5 71/3/5
f 73/2/5 68/2/5 72/2/5
f 76/1/5 75/1/5 74/1/5
f 77/1/5 75/1/5 76/1/5
f 78/2/6 79/2/6 80/2/6
f 80/2/6 79/2/6 83/2/6
f 83/2/6 79/2/6 84/2/6
f 84/2/6 79/2/6 85/2/6
f 81/1/6 82/1/6 86/1/6
f 82/3/6 83/3/6 87/3/6
f 86/1/6 82/1/6 87/1/6
f 83/2/6 84/2/6 88/2/6
f 87/3/6 83/3/6 88/3/6
f 88/2/6 84/2/6 89/2/6
f 90/1/6 91/1/6 93/1/6
f 91/3/6 92/3/6 94/3/6
f 93/1/6 91/1/6 94/1/6
f 94/3/6 92/3/6 95/3/6
