# MagicaVoxel @ Ephtracy

# group
o 

# material
mtllib Ilha Mercadão-45.mtl
usemtl palette

# normals
vn -1 0 0
vn 1 0 0
vn 0 0 1
vn 0 0 -1
vn 0 -1 0
vn 0 1 0

# texcoords
vt 0.763672 0.5
vt 0.771484 0.5

# verts
v -2.4 0 -5
v -2.4 0 -5.1
v -2.4 0 -5.3
v -2.4 0.3 -5
v -2.4 0.3 -5.1
v -2.4 0.3 -5.3
v 2.6 0 -5
v 2.6 0 -5.3
v 2.6 0.3 -5
v 2.6 0.3 -5.3
v -2.4 0 -5
v -2.4 0.3 -5
v -2.3 0 -5
v -2.3 0.3 -5
v 2.6 0 -5
v 2.6 0.3 -5
v -2.4 0 -5.3
v -2.4 0.3 -5.3
v 2.6 0 -5.3
v 2.6 0.3 -5.3
v -2.4 0 -5
v -2.3 0 -5
v 2.6 0 -5
v -2.4 0 -5.1
v -2.3 0 -5.1
v -2.4 0 -5.3
v 2.6 0 -5.3
v -2.4 0.3 -5
v -2.3 0.3 -5
v 2.6 0.3 -5
v -2.4 0.3 -5.1
v -2.3 0.3 -5.1
v -2.4 0.3 -5.3
v 2.6 0.3 -5.3

# faces
f 4/1/1 2/1/1 1/1/1
f 5/2/1 3/2/1 2/2/1
f 5/1/1 2/1/1 4/1/1
f 6/2/1 3/2/1 5/2/1
f 7/2/2 8/2/2 9/2/2
f 9/2/2 8/2/2 10/2/2
f 13/1/3 12/1/3 11/1/3
f 14/1/3 12/1/3 13/1/3
f 15/2/3 14/2/3 13/2/3
f 16/2/3 14/2/3 15/2/3
f 17/2/4 18/2/4 19/2/4
f 19/2/4 18/2/4 20/2/4
f 24/1/5 22/1/5 21/1/5
f 25/2/5 23/2/5 22/2/5
f 25/1/5 22/1/5 24/1/5
f 26/2/5 25/2/5 24/2/5
f 27/2/5 23/2/5 25/2/5
f 27/2/5 25/2/5 26/2/5
f 28/1/6 29/1/6 31/1/6
f 29/2/6 30/2/6 32/2/6
f 31/1/6 29/1/6 32/1/6
f 31/2/6 32/2/6 33/2/6
f 32/2/6 30/2/6 34/2/6
f 33/2/6 32/2/6 34/2/6
