# MagicaVoxel @ Ephtracy

# group
o 

# material
mtllib Ilha Mercadão-2.mtl
usemtl palette

# normals
vn -1 0 0
vn 1 0 0
vn 0 0 1
vn 0 0 -1
vn 0 -1 0
vn 0 1 0

# texcoords
vt 0.373047 0.5
vt 0.763672 0.5
vt 0.767578 0.5

# verts
v -3.4 0 5.2
v -3.4 0 5.1
v -3.4 0.3 5.2
v -3.4 0.3 5.1
v -2.5 0 5.2
v -2.5 0 5.1
v -2.5 0.3 5.2
v -2.5 0.3 5.1
v -3.4 0 5.2
v -3.4 0.3 5.2
v -3.3 0 5.2
v -3.3 0.3 5.2
v -3.2 0 5.2
v -3.2 0.3 5.2
v -2.9 0 5.2
v -2.9 0.3 5.2
v -2.5 0 5.2
v -2.5 0.3 5.2
v -3.4 0 5.1
v -3.4 0.3 5.1
v -3.3 0 5.1
v -3.3 0.3 5.1
v -3.2 0 5.1
v -3.2 0.3 5.1
v -2.9 0 5.1
v -2.9 0.3 5.1
v -2.5 0 5.1
v -2.5 0.3 5.1
v -3.4 0 5.2
v -3.3 0 5.2
v -3.2 0 5.2
v -2.9 0 5.2
v -2.5 0 5.2
v -3.4 0 5.1
v -3.3 0 5.1
v -3.2 0 5.1
v -2.9 0 5.1
v -2.5 0 5.1
v -3.4 0.3 5.2
v -3.3 0.3 5.2
v -3.2 0.3 5.2
v -2.9 0.3 5.2
v -2.5 0.3 5.2
v -3.4 0.3 5.1
v -3.3 0.3 5.1
v -3.2 0.3 5.1
v -2.9 0.3 5.1
v -2.5 0.3 5.1

# faces
f 3/1/1 2/1/1 1/1/1
f 4/1/1 2/1/1 3/1/1
f 5/3/2 6/3/2 7/3/2
f 7/3/2 6/3/2 8/3/2
f 11/1/3 10/1/3 9/1/3
f 12/1/3 10/1/3 11/1/3
f 13/3/3 12/3/3 11/3/3
f 14/3/3 12/3/3 13/3/3
f 15/2/3 14/2/3 13/2/3
f 16/2/3 14/2/3 15/2/3
f 17/3/3 16/3/3 15/3/3
f 18/3/3 16/3/3 17/3/3
f 19/1/4 20/1/4 21/1/4
f 21/1/4 20/1/4 22/1/4
f 21/3/4 22/3/4 23/3/4
f 23/3/4 22/3/4 24/3/4
f 23/2/4 24/2/4 25/2/4
f 25/2/4 24/2/4 26/2/4
f 25/3/4 26/3/4 27/3/4
f 27/3/4 26/3/4 28/3/4
f 34/1/5 30/1/5 29/1/5
f 35/3/5 31/3/5 30/3/5
f 35/1/5 30/1/5 34/1/5
f 36/2/5 32/2/5 31/2/5
f 36/3/5 31/3/5 35/3/5
f 37/3/5 33/3/5 32/3/5
f 37/2/5 32/2/5 36/2/5
f 38/3/5 33/3/5 37/3/5
f 39/1/6 40/1/6 44/1/6
f 40/3/6 41/3/6 45/3/6
f 44/1/6 40/1/6 45/1/6
f 41/2/6 42/2/6 46/2/6
f 45/3/6 41/3/6 46/3/6
f 42/3/6 43/3/6 47/3/6
f 46/2/6 42/2/6 47/2/6
f 47/3/6 43/3/6 48/3/6
