# MagicaVoxel @ Ephtracy

# group
o 

# material
mtllib Ilha Mercadão-20.mtl
usemtl palette

# normals
vn -1 0 0
vn 1 0 0
vn 0 0 1
vn 0 0 -1
vn 0 -1 0
vn 0 1 0

# texcoords
vt 0.373047 0.5
vt 0.763672 0.5
vt 0.771484 0.5

# verts
v -3.9 0 4.1
v -3.9 0 2.1
v -3.9 0.5 4.1
v -3.9 0.5 2.1
v -2.4 0 4.1
v -2.4 0 2.1
v -2.4 0.1 3.7
v -2.4 0.1 2.1
v -2.4 0.2 3.7
v -2.4 0.2 2.1
v -2.4 0.5 4.1
v -2.4 0.5 2.1
v -3.9 0 4.1
v -3.9 0.5 4.1
v -3.8 0 4.1
v -3.8 0.1 4.1
v -3.3 0.1 4.1
v -3.3 0.2 4.1
v -3.3 0.5 4.1
v -2.5 0.1 4.1
v -2.5 0.2 4.1
v -2.4 0 4.1
v -2.4 0.5 4.1
v -3.9 0 2.1
v -3.9 0.5 2.1
v -3.8 0 2.1
v -3.8 0.1 2.1
v -3.3 0.1 2.1
v -3.3 0.2 2.1
v -3.3 0.5 2.1
v -2.4 0 2.1
v -2.4 0.1 2.1
v -2.4 0.2 2.1
v -2.4 0.5 2.1
v -3.9 0 4.1
v -3.8 0 4.1
v -2.4 0 4.1
v -3.9 0 2.1
v -3.8 0 2.1
v -2.4 0 2.1
v -3.9 0.5 4.1
v -3.3 0.5 4.1
v -2.4 0.5 4.1
v -3.9 0.5 2.1
v -3.3 0.5 2.1
v -2.4 0.5 2.1

# faces
f 3/1/1 2/1/1 1/1/1
f 4/1/1 2/1/1 3/1/1
f 5/2/2 6/2/2 7/2/2
f 7/2/2 6/2/2 8/2/2
f 5/2/2 7/2/2 9/2/2
f 7/3/2 8/3/2 9/3/2
f 9/3/2 8/3/2 10/3/2
f 5/2/2 9/2/2 11/2/2
f 9/2/2 10/2/2 11/2/2
f 11/2/2 10/2/2 12/2/2
f 15/1/3 14/1/3 13/1/3
f 16/1/3 14/1/3 15/1/3
f 17/2/3 16/2/3 15/2/3
f 17/1/3 14/1/3 16/1/3
f 18/1/3 14/1/3 17/1/3
f 19/1/3 14/1/3 18/1/3
f 20/2/3 17/2/3 15/2/3
f 20/3/3 18/3/3 17/3/3
f 21/2/3 19/2/3 18/2/3
f 21/3/3 18/3/3 20/3/3
f 22/2/3 20/2/3 15/2/3
f 22/2/3 21/2/3 20/2/3
f 23/2/3 19/2/3 21/2/3
f 23/2/3 21/2/3 22/2/3
f 24/1/4 25/1/4 26/1/4
f 26/1/4 25/1/4 27/1/4
f 26/2/4 27/2/4 28/2/4
f 27/1/4 25/1/4 28/1/4
f 28/1/4 25/1/4 29/1/4
f 29/1/4 25/1/4 30/1/4
f 26/2/4 28/2/4 31/2/4
f 28/3/4 29/3/4 32/3/4
f 31/2/4 28/2/4 32/2/4
f 29/2/4 30/2/4 33/2/4
f 32/3/4 29/3/4 33/3/4
f 33/2/4 30/2/4 34/2/4
f 38/1/5 36/1/5 35/1/5
f 39/2/5 37/2/5 36/2/5
f 39/1/5 36/1/5 38/1/5
f 40/2/5 37/2/5 39/2/5
f 41/1/6 42/1/6 44/1/6
f 42/2/6 43/2/6 45/2/6
f 44/1/6 42/1/6 45/1/6
f 45/2/6 43/2/6 46/2/6
