# MagicaVoxel @ Ephtracy

# group
o 

# material
mtllib Ilha Mercadão-29.mtl
usemtl palette

# normals
vn -1 0 0
vn 1 0 0
vn 0 0 1
vn 0 0 -1
vn 0 -1 0
vn 0 1 0

# texcoords
vt 0.763672 0.5
vt 0.771484 0.5

# verts
v -3 0 1.4
v -3 0 1.3
v -3 0.1 1.4
v -3 0.1 1.3
v -3 0.3 1.4
v -3 0.3 1.3
v 5.6 0 1.4
v 5.6 0 1.3
v 5.6 0.3 1.4
v 5.6 0.3 1.3
v -3 0 1.4
v -3 0.1 1.4
v -3 0.3 1.4
v -2.4 0 1.4
v -2.4 0.1 1.4
v 5.6 0 1.4
v 5.6 0.3 1.4
v -3 0 1.3
v -3 0.1 1.3
v -3 0.3 1.3
v -2.4 0 1.3
v -2.4 0.1 1.3
v 5.6 0 1.3
v 5.6 0.3 1.3
v -3 0 1.4
v -2.4 0 1.4
v 5.6 0 1.4
v -3 0 1.3
v -2.4 0 1.3
v 5.6 0 1.3
v -3 0.3 1.4
v 5.6 0.3 1.4
v -3 0.3 1.3
v 5.6 0.3 1.3

# faces
f 3/1/1 2/1/1 1/1/1
f 4/1/1 2/1/1 3/1/1
f 5/2/1 4/2/1 3/2/1
f 6/2/1 4/2/1 5/2/1
f 7/2/2 8/2/2 9/2/2
f 9/2/2 8/2/2 10/2/2
f 14/1/3 12/1/3 11/1/3
f 15/2/3 13/2/3 12/2/3
f 15/1/3 12/1/3 14/1/3
f 16/2/3 15/2/3 14/2/3
f 17/2/3 13/2/3 15/2/3
f 17/2/3 15/2/3 16/2/3
f 18/1/4 19/1/4 21/1/4
f 19/2/4 20/2/4 22/2/4
f 21/1/4 19/1/4 22/1/4
f 21/2/4 22/2/4 23/2/4
f 22/2/4 20/2/4 24/2/4
f 23/2/4 22/2/4 24/2/4
f 28/1/5 26/1/5 25/1/5
f 29/2/5 27/2/5 26/2/5
f 29/1/5 26/1/5 28/1/5
f 30/2/5 27/2/5 29/2/5
f 31/2/6 32/2/6 33/2/6
f 33/2/6 32/2/6 34/2/6
